<svg xmlns="http://www.w3.org/2000/svg" viewBox="0 0 28 28"><defs><style>.cls-2{fill:#0090c5}</style></defs><g id="shopping-cart-add-button" class="cls-1" transform="translate(-.001)"><g id="Group_31" data-name="Group 31" transform="translate(.001)"><g id="Group_29" data-name="Group 29" transform="translate(0 5.25)"><path id="Path_342" d="M24.5 106.728H9.929l-6.125-14H0v-1.75h4.949l6.125 14H24.5z" class="cls-2" data-name="Path 342" transform="translate(-.001 -90.978)"/></g><path id="Path_343" d="M187.206 396.862a2.625 2.625 0 1 1-2.625-2.625 2.626 2.626 0 0 1 2.625 2.625z" class="cls-2" data-name="Path 343" transform="translate(-171.456 -371.487)"/><path id="Path_344" d="M338.837 396.862a2.625 2.625 0 1 1-2.625-2.625 2.626 2.626 0 0 1 2.625 2.625z" class="cls-2" data-name="Path 344" transform="translate(-314.337 -371.487)"/><g id="Group_30" data-name="Group 30" transform="translate(15.75)"><path id="Path_345" d="M279.058 0a6.125 6.125 0 1 0 6.125 6.125A6.126 6.126 0 0 0 279.058 0zm3.5 7h-2.625v2.625h-1.75V7h-2.625V5.25h2.625V2.625h1.75V5.25h2.625z" class="cls-2" data-name="Path 345" transform="translate(-272.933)"/></g><path id="Path_346" d="M164.754 156.878a7.862 7.862 0 0 1-7.392-5.25h-5.734l3.5 8.75h12.25l2.02-5.048a7.812 7.812 0 0 1-4.644 1.548z" class="cls-2" data-name="Path 346" transform="translate(-142.879 -142.878)"/></g></g></svg>