<svg xmlns="http://www.w3.org/2000/svg" viewBox="0 0 28 28">
  <defs>
    <style>
      .cls-2 {
        fill: #0090c5;
      }
    </style>
  </defs>
  <g id="relatorios" class="cls-1">
    <g id="Group_38" data-name="Group 38">
      <path id="Path_357" data-name="Path 357" class="cls-2" d="M27.813,6.549,21.451.187A.634.634,0,0,0,21,0H2.545A2.548,2.548,0,0,0,0,2.545V25.455A2.548,2.548,0,0,0,2.545,28H25.455A2.548,2.548,0,0,0,28,25.455V7A.634.634,0,0,0,27.813,6.549Zm-4.344,8.71H20.113l-1.1,3.4a.635.635,0,0,1-.6.441h0a.634.634,0,0,1-.6-.434L14.648,9.255,11.359,22.413a.636.636,0,0,1-.593.482h-.025a.637.637,0,0,1-.6-.435l-2.4-7.2H4.377a.636.636,0,1,1,0-1.273H8.2a.638.638,0,0,1,.6.435l1.854,5.563L13.942,6.832a.637.637,0,0,1,.593-.482.622.622,0,0,1,.628.434l3.233,9.65.65-2.007a.636.636,0,0,1,.605-.441h3.818a.636.636,0,1,1,0,1.273Zm-.559-8.9a1.274,1.274,0,0,1-1.273-1.273V2.173l4.191,4.191Z"/>
    </g>
  </g>
</svg>
