<svg xmlns="http://www.w3.org/2000/svg" viewBox="0 0 28 24.889">
  <defs>
    <style>
      .cls-1 {
        fill: #0090c5;
      }
    </style>
  </defs>
  <g id="Visitas" transform="translate(-203 -549)">
    <path id="ic_directions_car_24px" class="cls-1" d="M27.764,6.571A2.324,2.324,0,0,0,25.556,5H8.444A2.339,2.339,0,0,0,6.236,6.571L3,15.889V28.333a1.56,1.56,0,0,0,1.556,1.556H6.111a1.56,1.56,0,0,0,1.556-1.556V26.778H26.333v1.556a1.56,1.56,0,0,0,1.556,1.556h1.556A1.56,1.56,0,0,0,31,28.333V15.889ZM8.444,22.111a2.333,2.333,0,1,1,2.333-2.333A2.33,2.33,0,0,1,8.444,22.111Zm17.111,0a2.333,2.333,0,1,1,2.333-2.333A2.33,2.33,0,0,1,25.556,22.111ZM6.111,14.333l2.333-7H25.556l2.333,7Z" transform="translate(200 544)"/>
  </g>
</svg>
