<svg xmlns="http://www.w3.org/2000/svg" viewBox="0 0 20.478 28">
  <defs>
    <style>
      .cls-2 {
        fill: #0090c5;
      }
    </style>
  </defs>
  <g id="visitas" class="cls-1" transform="translate(-68.772)">
    <g id="Group_35" data-name="Group 35" transform="translate(68.772 1.836)">
      <g id="Group_34" data-name="Group 34" transform="translate(0)">
        <path id="Path_355" data-name="Path 355" class="cls-2" d="M86.79,33.575H84.823a2.223,2.223,0,0,1,.035.39V35.68A2.222,2.222,0,0,1,82.639,37.9H75.383a2.222,2.222,0,0,1-2.219-2.219V33.965a2.219,2.219,0,0,1,.035-.39H71.232a2.463,2.463,0,0,0-2.46,2.46V57.278a2.463,2.463,0,0,0,2.46,2.46H86.79a2.463,2.463,0,0,0,2.46-2.46V36.035A2.463,2.463,0,0,0,86.79,33.575Zm-13.981,7.9a.82.82,0,0,1,1.122.293l.386.66,1.833-2.651a.82.82,0,1,1,1.349.933l-2.565,3.71a.82.82,0,0,1-.674.354h-.031a.82.82,0,0,1-.677-.405L72.515,42.6A.82.82,0,0,1,72.808,41.474ZM77.5,46.768l-2.565,3.71a.82.82,0,0,1-.674.354h-.031a.82.82,0,0,1-.677-.405l-1.037-1.771a.82.82,0,0,1,1.416-.829l.386.66,1.833-2.651a.82.82,0,1,1,1.349.933Zm7.353,3.32H79.3a.82.82,0,1,1,0-1.64h5.555a.82.82,0,0,1,0,1.64Zm0-3.066H79.3a.82.82,0,1,1,0-1.64h5.555a.82.82,0,0,1,0,1.64Zm0-2.993H79.3a.82.82,0,1,1,0-1.64h5.555a.82.82,0,0,1,0,1.64Z" transform="translate(-68.772 -33.575)"/>
      </g>
    </g>
    <g id="Group_37" data-name="Group 37" transform="translate(74.804)">
      <g id="Group_36" data-name="Group 36" transform="translate(0)">
        <path id="Path_356" data-name="Path 356" class="cls-2" d="M186.906,0H179.65a.58.58,0,0,0-.579.579V3.941h0a.58.58,0,0,0,.579.579h7.256a.58.58,0,0,0,.579-.579V.579A.58.58,0,0,0,186.906,0Z" transform="translate(-179.071)"/>
      </g>
    </g>
  </g>
</svg>
