<svg xmlns="http://www.w3.org/2000/svg" id="Camada_1" viewBox="0 0 359.1 279.7"><style>.st1{fill:#fff}.st2{fill:#eaedee}.st3{fill:#f1cdb4}.st4{fill:#caadbc}.st5{fill:#a06d85}.st6{fill:#a47f6d}.st7{fill:#e48c85}.st8{fill:#b89694}.st9{fill:#a27370}.st11{fill:#edbbe0}</style><path fill="#7ed3d7" d="M0 0h359.1v279.2H.1L0 0z"/><path d="M153.9 51.1c2.3 0 4.5.9 6.2 2.4a14.5 14.5 0 0 1 19.8-5.8l1.2.7a23.3 23.3 0 0 1 38.4-2.2 14.6 14.6 0 0 1 18 14.2h-92.9c0-5.1 4.2-9.3 9.3-9.3zM249.6 14a9 9 0 0 1 6 2.4 14.6 14.6 0 0 1 21.2-5.2 23.3 23.3 0 0 1 38.4-2.1c1.1-.3 2.3-.4 3.4-.4 8 0 14.6 14.6 14.6 14.6h-93c0-5.1 4.2-9.3 9.3-9.3h.1z" class="st1"/><path d="M360.6 16.2l-2 .3a23.4 23.4 0 0 0-38.4 2.1 14.6 14.6 0 0 0-21.1 5.2 9.3 9.3 0 0 0-15.5 7h77V16.2zm-115 44.1a5 5 0 0 0-3.3 1.3 8 8 0 0 0-10.7-3.2l-.7.4a12.5 12.5 0 0 0-17.3-4.1c-1.3.8-2.4 1.8-3.4 3a7.9 7.9 0 0 0-9.5 5.7c-.2.6-.2 1.3-.2 1.9h50.1a5 5 0 0 0-5-5z" class="st2"/><path d="M135.6 41c-2.3 0-4.5.8-6.2 2.3a14.5 14.5 0 0 0-19.8-5.8l-1.2.7A23.4 23.4 0 0 0 69.9 36a14.6 14.6 0 0 0-18.1 14.1h93c-.1-5-4.2-9-9.2-9.1zm224 33.7a23.3 23.3 0 0 0-22 8.8 14.6 14.6 0 0 0-18 14.2h40v-23z" class="st1"/><path d="M71.8 50c-1.3 0-2.5.5-3.4 1.3a7.9 7.9 0 0 0-10.8-3l-.5.3a12.6 12.6 0 0 0-20.8-1.2 7.9 7.9 0 0 0-9.5 5.7c-.2.6-.2 1.3-.2 1.9h50.2a5 5 0 0 0-5-5z" class="st2"/><path d="M98.7 61.2c2.3 0 4.5.8 6.2 2.3a14.5 14.5 0 0 1 19.8-5.8l1.2.7a23.3 23.3 0 0 1 38.4-2.1 14.6 14.6 0 0 1 18 14.1H89.5a9.3 9.3 0 0 1 9.3-9.2h-.1zM-5.7 98.1h47.4A15 15 0 0 0 23 83.8a25 25 0 0 0-28.6-7.4v21.7z" class="st1"/><path d="M306.3 205.4h38v64h-38v-64z" class="st3"/><path d="M313.4 165.6h23.8V199h-23.8v-33.4z" class="st4"/><path d="M323.6 152.7h3.5V186h-3.5v-33.3z" class="st4"/><path d="M328.7 192.2v-6.3h15.6v-6h-38v6h15.5v6.3h-15.5v8.3h15.5v6.2h-15.5v8.3h15.5v6.3h-15.5v8.2h15.5v6.3h-15.5v8.3h15.5v6.2h-15.5v8.3h15.5v6.3h-15.5v4.4h38V265h-15.6v-6.3h15.6v-8.3h-15.6v-6.2h15.6v-8.3h-15.6v-6.3h15.6v-8.2h-15.6V215h15.6v-8.3h-15.6v-6.2h15.6v-8.3h-15.6z" class="st4"/><path d="M306.3 186h15.6v6.2h-15.6V186zm22.4 0h15.6v6.2h-15.6V186zm-22.4 14.5h15.6v6.3h-15.6v-6.3zm22.4 0h15.6v6.3h-15.6v-6.3z" class="st5"/><path d="M306.3 215h15.6v6.3h-15.6V215z" class="st3"/><path d="M328.7 215h15.6v6.3h-15.6V215z" class="st5"/><path d="M306.3 229.5h15.6v6.3h-15.6v-6.3z" class="st3"/><path d="M328.7 229.5h15.6v6.3h-15.6v-6.3z" class="st5"/><path d="M306.3 244h15.6v6.4h-15.6V244z" class="st3"/><path d="M328.7 244h15.6v6.4h-15.6V244z" class="st5"/><path d="M306.3 257.8h16.5v8.2h-16.5v-8.2z" class="st3"/><path d="M327.2 256.9h17v9.9h-17v-9.9z" class="st5"/><path d="M256.5 125.4H296v147h-39.5v-147z" class="st6"/><path d="M261.6 140H290v4.6h-28.4V140z" class="st1"/><path d="M261.6 155.7H290v4.7h-28.4v-4.7zm0 15.7H290v4.7h-28.4v-4.7zm0 15.8H290v4.7h-28.4v-4.7z" class="st6"/><path d="M261.6 203H290v4.6h-28.4V203z" class="st1"/><path d="M261.6 218.7H290v4.7h-28.4v-4.7z" class="st6"/><path d="M261.6 234.4H290v4.7h-28.4v-4.7z" class="st1"/><path d="M261.6 250.2H290v4.7h-28.4v-4.7z" class="st6"/><path d="M256.5 125.4H296v147h-39.5v-147z" class="st1"/><path d="M261.6 140H290v4.6h-28.4V140zm0 15.7H290v4.7h-28.4v-4.7zm0 15.7H290v4.7h-28.4v-4.7zm0 15.8H290v4.7h-28.4v-4.7zm0 15.8H290v4.6h-28.4V203zm0 15.7H290v4.7h-28.4v-4.7zm0 15.7H290v4.7h-28.4v-4.7zm0 15.8H290v4.7h-28.4v-4.7z" class="st6"/><path d="M258.9 152l-29 24.3v95.8h29V152z" class="st3"/><path d="M258.9 152l-29 24.3v95.8h29V152z" class="st7"/><path d="M234.8 184.5h7.2v11.2h-7.2v-11.2zm11.7 0h6.7v10.8h-6.7v-10.8zm-11.7 15.7h7.2v11.2h-7.2v-11.2zm11.7 0h6.7V211h-6.7v-10.8zM234.8 216h7.2v11h-7.2v-11zm11.7 0h6.7v10.7h-6.7V216zm-11.7 15.6h7.2v11.2h-7.2v-11.2zm11.7 0h6.7v10.8h-6.7v-10.8zm-11.7 15.7h7.2v11.2h-7.2v-11.2zm11.7 0h6.7v10.8h-6.7v-10.8z" class="st3"/><path d="M200.9 152l-29 24.3v95.8h29V152z" class="st8"/><path d="M189.6 186.2c.1-2.7-2-4.8-4.7-4.9-2.7-.1-4.8 2-4.9 4.7-.1 2.7 2 4.8 4.7 4.9h.2c2.6 0 4.6-2.1 4.7-4.7zm-.4 13.7c0-2.7-2.1-4.8-4.7-4.9a4.9 4.9 0 0 0-4.9 4.7c0 2.7 2.1 4.8 4.7 4.9a5 5 0 0 0 3.5-1.4c.9-.9 1.4-2 1.4-3.3z" class="st9"/><path d="M197.7 212.2a4.8 4.8 0 0 0-9.6 0c0 2.6 2.2 4.8 4.8 4.8a4.8 4.8 0 0 0 4.8-4.8zm-13.1 13.3c0-2.7-2.1-4.8-4.8-4.8s-4.8 2.1-4.8 4.8c0 2.7 2.1 4.8 4.8 4.8s4.8-2.1 4.8-4.8zm13.1 0c0-2.7-2.1-4.8-4.8-4.8s-4.8 2.1-4.8 4.8c0 2.7 2.1 4.8 4.8 4.8s4.8-2.1 4.8-4.8zm-13.1 13.3c.1-2.7-2-4.8-4.7-4.9-2.7-.1-4.8 2-4.9 4.7s2 4.8 4.7 4.9h.1c2.6 0 4.7-2.1 4.8-4.7zm13.1 0a4.8 4.8 0 0 0-9.6 0c0 2.6 2.2 4.8 4.8 4.8a4.8 4.8 0 0 0 4.8-4.8zM184.6 252c0-2.7-2.1-4.8-4.8-4.8a4.7 4.7 0 0 0-4.8 4.8c0 2.7 2.1 4.8 4.8 4.8 2.6 0 4.7-2.1 4.8-4.8zm13.1 0a4.8 4.8 0 0 0-9.6 0c0 2.6 2.2 4.8 4.8 4.8a4.8 4.8 0 0 0 4.8-4.8z" class="st6"/><path d="M229.9 152l-29 24.3v95.8h29V152z" class="st4"/><path d="M202.4 185.2h3.6v8.5h-3.6v-8.5z" class="st4"/><path d="M208 185.2h3.6v8.5H208v-8.5z" class="st5"/><path d="M213.6 185.2h3.6v8.5h-3.6v-8.5z" class="st4"/><path d="M219.2 185.2h3.6v8.5h-3.6v-8.5z" class="st5"/><path d="M224.8 185.2h3.6v8.5h-3.6v-8.5zm-22.4 11h3.6v8.5h-3.6v-8.5z" class="st4"/><path d="M208 196.2h3.6v8.5H208v-8.5z" class="st5"/><path d="M213.6 196.2h3.6v8.5h-3.6v-8.5z" class="st4"/><path d="M219.2 196.2h3.6v8.5h-3.6v-8.5z" class="st5"/><path d="M224.8 196.2h3.6v8.5h-3.6v-8.5z" class="st4"/><path d="M202.4 207.1h3.6v8.5h-3.6v-8.5z" class="st3"/><path d="M208 207.1h3.6v8.5H208v-8.5z" class="st5"/><path d="M213.6 207.1h3.6v8.5h-3.6v-8.5z" class="st4"/><path d="M219.2 207.1h3.6v8.5h-3.6v-8.5zm5.6 0h3.6v8.5h-3.6v-8.5zM202.4 218h3.6v8.6h-3.6V218zm5.6 0h3.6v8.6H208V218zm5.6 0h3.6v8.6h-3.6V218zm5.6 0h3.6v8.6h-3.6V218zm5.6 0h3.6v8.6h-3.6V218zm-22.4 11h3.6v8.5h-3.6V229zm5.6 0h3.6v8.5H208V229zm5.6 0h3.6v8.5h-3.6V229zm5.6 0h3.6v8.5h-3.6V229zm5.6 0h3.6v8.5h-3.6V229zm-22.4 11h3.6v8.4h-3.6V240zm5.6 0h3.6v8.4H208V240zm5.6 0h3.6v8.4h-3.6V240zm5.6 0h3.6v8.4h-3.6V240zm5.6 0h3.6v8.4h-3.6V240zm-22.4 10.8h3.6v8.5h-3.6v-8.5zm5.6 0h3.6v8.5H208v-8.5zm5.6 0h3.6v8.5h-3.6v-8.5zm5.6 0h3.6v8.5h-3.6v-8.5zm5.6 0h3.6v8.5h-3.6v-8.5z" class="st3"/><path d="M86.3 92h39.5v180.3H86.3V92z" class="st4"/><path d="M90.3 97.1h31.5v2H90.3v-2zm0 6.9h31.5v2H90.3v-2zm0 7h31.5v2H90.3v-2zm0 6.8h31.5v2H90.3v-2zm0 6.9h31.5v2H90.3v-2zm0 6.9h31.5v2H90.3v-2zm0 6.9h31.5v2H90.3v-2zm0 6.9h31.5v2H90.3v-2zm0 6.9h31.5v2H90.3v-2zm0 6.9h31.5v2H90.3v-2zm0 6.9h31.5v2H90.3v-2zm0 6.9h31.5v2H90.3v-2zm0 6.9h31.5v2H90.3v-2zm0 6.9h31.5v2H90.3v-2zm0 6.9h31.5v2H90.3v-2z" class="st5"/><path d="M90.3 200.6h31.5v2H90.3v-2zm0 6.9h31.5v2H90.3v-2zm0 6.9h31.5v2H90.3v-2zm0 6.9h31.5v2H90.3v-2zm0 6.9h31.5v2H90.3v-2zm0 6.8h31.5v2H90.3v-2zm0 7h31.5v2H90.3v-2zm0 6.8h31.5v2H90.3v-2zm0 6.9h31.5v2H90.3v-2z" class="st3"/><path d="M120.8 150h39.5v122.3h-39.5V150z" class="st1"/><path d="M151.6 166.9h-22v-24.3l11-9.6 11 9.6v24.3z" class="st1"/><path d="M134.9 142.8h3.9v9.2h-4l.1-9.2zm7.4 0h3.9v9.2h-4l.1-9.2zm-14.7 14.9h3.8v9.2h-3.8v-9.2zm7.3 0h4v9.2h-4v-9.2zm7.3 0h4v9.2h-4v-9.2zm7.4 0h4v9.2h-4v-9.2zm-22 12.7h3.8v9.2h-3.8v-9.2zm7.3 0h4v9.2h-4v-9.2zm7.3 0h4v9.2h-4v-9.2zm7.4 0h4v9.2h-4v-9.2zm-22 12.6h3.8v9.2h-3.8V183zm7.3 0h4v9.2h-4V183zm7.3 0h4v9.2h-4V183zm7.4 0h4v9.2h-4V183zm-22 12.7h3.8v9.2h-3.8v-9.2zm7.3 0h4v9.2h-4v-9.2zm7.3 0h4v9.2h-4v-9.2zm7.4 0h4v9.2h-4v-9.2zm-22 12.6h3.8v9.2h-3.8v-9.2zm7.3 0h4v9.2h-4v-9.2zm7.3 0h4v9.2h-4v-9.2zm7.4 0h4v9.2h-4v-9.2zm-22 12.7h3.8v9.2h-3.8V221zm7.3 0h4v9.2h-4V221zm7.3 0h4v9.2h-4V221zm7.4 0h4v9.2h-4V221zm-22 12.6h3.8v9.2h-3.8v-9.2zm7.3 0h4v9.2h-4v-9.2zm7.3 0h4v9.2h-4v-9.2zm7.4 0h4v9.2h-4v-9.2zm-22 12.7h3.8v9.2h-3.8v-9.2zm7.3 0h4v9.2h-4v-9.2zm7.3 0h4v9.2h-4v-9.2zm7.4 0h4v9.2h-4v-9.2z" class="st6"/><path d="M20.4 152.3h42.8V277H20.4V152.3z" class="st8"/><path d="M24.3 142.8h34V157h-34v-14.2z" class="st8"/><path d="M28.2 133.8h26.1v11h-26l-.1-11z" class="st8"/><path d="M26.3 159.2h5.3v11.6h-5.3v-11.6zm8.3 0h5.2v11.6h-5.2v-11.6zm8.2 0h5.3v11.6h-5.3v-11.6zm8.2 0h5.3v11.6H51v-11.6zM26.3 175h5.3v11.7h-5.3V175zm8.3 0h5.2v11.7h-5.2V175zm8.2 0h5.3v11.7h-5.3V175zm8.2 0h5.3v11.7H51V175zm-24.7 16h5.3v11.5h-5.3V191zm8.3 0h5.2v11.5h-5.2V191zm8.2 0h5.3v11.5h-5.3V191zm8.2 0h5.3v11.5H51V191zm-24.7 15.8h5.3v11.6h-5.3v-11.6zm8.3 0h5.2v11.6h-5.2v-11.6zm8.2 0h5.3v11.6h-5.3v-11.6zm8.2 0h5.3v11.6H51v-11.6z" class="st9"/><path d="M94.7 275.1H55.1v-78.3l8.1-14.5h23.1l8.4 14.5v78.3z" class="st8"/><path d="M64 197.1h5.3v11.6H64v-11.6zm8.3 0h5.3v11.6h-5.3v-11.6zm8.3 0h5.2v11.6h-5.2v-11.6zM64 211.7h5.3v11.6H64v-11.6zm8.3 0h5.3v11.6h-5.3v-11.6zm8.3 0h5.2v11.6h-5.2v-11.6zM64 226.3h5.3v11.6H64v-11.6zm8.3 0h5.3v11.6h-5.3v-11.6zm8.3 0h5.2v11.6h-5.2v-11.6z" class="st9"/><path d="M213.6 275H174v-57l19.8-26.6 19.8 26.6v57z" class="st7"/><path d="M179.4 244.5h28.8v15h-28.8v-15z" class="st1"/><path d="M211.6 245.3l-2-8.5h-31.5l-2 8.5-.1.4c1.5-.7 3.3-.2 4.1 1.3.2-.7 1-1.2 1.7-1 .5.1.8.5 1 1 0-.8.6-1.4 1.4-1.4.8 0 1.4.6 1.4 1.4.2-.7 1-1.2 1.7-1 .5.1.8.5 1 1 0-.8.6-1.4 1.4-1.4.8 0 1.4.6 1.4 1.4.2-.7 1-1.2 1.7-1 .5.1.8.5 1 1 0-.8.6-1.4 1.4-1.4.8 0 1.4.6 1.4 1.4.2-.7 1-1.2 1.7-1 .5.1.8.5 1 1 .2-.7 1-1.1 1.8-.9.5.1.8.5.9 1 0-.8.6-1.4 1.4-1.4.8 0 1.4.6 1.4 1.4.2-.7 1-1.2 1.7-1 .5.1.8.5 1 1 0-.8.6-1.4 1.4-1.4.8 0 1.4.6 1.4 1.4.7-.1 1.3-.7 1.3-1.4v-.4zm-32-24.9h4.6v10.4h-4.6v-10.4zm7.4 0h4.6v10.4H187v-10.4zm7.3 0h4.6v10.4h-4.6v-10.4zm7.4 0h4.6v10.4h-4.6v-10.4z" class="st3"/><path d="M174 266.5h-39.6v-48l19.8-26.7 19.8 26.6v48.1z" class="st8"/><path d="M145.2 224.7a3 3 0 0 0-3.7-2.1c-1 .3-1.9 1.1-2.1 2.1v9.2h5.8v-9.2zm7.9 0a2.9 2.9 0 0 0-5.8 0v9.2h5.8v-9.2zm7.9 0a2.9 2.9 0 0 0-5.8 0v9.2h5.9l-.1-9.2zm7.9 0a3 3 0 0 0-3.7-2.1c-1 .3-1.9 1.1-2.1 2.1v9.2h5.9l-.1-9.2zm-23.7 14.9a3 3 0 0 0-3.7-2.1c-1 .3-1.9 1.1-2.1 2.1v9.2h5.8v-9.2zm7.9 0a2.9 2.9 0 0 0-5.8 0v9.2h5.8v-9.2zm7.9 0a2.9 2.9 0 0 0-5.8 0v9.2h5.9l-.1-9.2zm7.9 0a3 3 0 0 0-3.7-2.1c-1 .3-1.9 1.1-2.1 2.1v9.2h5.9l-.1-9.2z" class="st9"/><path d="M292.9 277.7h-39.6V220l8-10.7h23.3L293 220l-.1 57.7z" class="st4"/><path d="M262.3 223.2h21.5v9.8h-21.5v-9.8zm0 14.8h21.5v9.9h-21.5V238z" class="st5"/><path d="M94.7 200.6h39.6V275H94.7v-74.4z" class="st7"/><path d="M101.2 209.4h8v4h-8v-4zm9.4 0h7.9v4h-8l.1-4zm9.3 0h8v4h-8v-4zm-18.7 7.1h8v4h-8v-4zm9.4 0h7.9v4h-8l.1-4zm9.3 0h8v4h-8v-4zm-18.7 7.1h8v3.9h-8v-3.9zm9.4 0h7.9v3.9h-8l.1-3.9zm9.3 0h8v3.9h-8v-3.9zm-18.7 7.1h8v3.9h-8v-3.9zm9.4 0h7.9v3.9h-8l.1-3.9zm9.3 0h8v3.9h-8v-3.9zm-18.7 7.1h8v3.9h-8v-3.9zm9.4 0h7.9v3.9h-8l.1-3.9zm9.3 0h8v3.9h-8v-3.9zm-18.7 7.1h8v3.9h-8v-3.9zm9.4 0h7.9v3.9h-8l.1-3.9zm9.3 0h8v3.9h-8v-3.9z" class="st3"/><path d="M55.1 275.1H15.6v-48l19.8-26.7L55.1 227v48.1z" class="st1"/><path d="M27.8 220.5h5.3V232h-5.3v-11.5zm8.2 0h5.3V232H36v-11.5zm-8.2 15.4h5.3v11.6h-5.3v-11.6zm8.2 0h5.3v11.6H36v-11.6z" class="st6"/><path d="M213.6 213.7h39.6v61.4h-39.6v-61.4z" class="st1"/><path d="M217.2 205.8h30.4v15.7h-30.3l-.1-15.7z" class="st1"/><path d="M220.9 199H244v12h-23l-.1-12z" class="st1"/><path d="M220.4 218.3h4v9.2h-4v-9.2zm7.4 0h4v9.2h-4v-9.2zm7.3 0h4v9.2h-4v-9.2zm7.5 0h3.9v9.2h-4l.1-9.2zM220.4 231h4v9.1h-4V231zm7.4 0h4v9.1h-4V231zm7.3 0h4v9.1h-4V231zm7.5 0h3.9v9.1h-4l.1-9.1zm-22.2 12.6h4v9.2h-4v-9.2zm7.4 0h4v9.2h-4v-9.2zm7.3 0h4v9.2h-4v-9.2zm7.5 0h3.9v9.2h-4l.1-9.2z" class="st6"/><path d="M332.6 267.6h-39.7v-48l19.8-26.7 19.8 26.6.1 48.1z" class="st8"/><path d="M303.4 225.4c0-1.3-1-2.3-2.3-2.3-1.3 0-2.3 1-2.3 2.3 0 1.2 1 2.2 2.2 2.3 1.3.1 2.3-.9 2.4-2.2v-.1zm6.8 0c0-1.3-1-2.3-2.3-2.3-1.3 0-2.3 1-2.3 2.3 0 1.3 1 2.3 2.3 2.3 1.3 0 2.3-1 2.3-2.3zm-6.8 6.6c0-1.3-1-2.3-2.2-2.4-1.3 0-2.3 1-2.4 2.2 0 1.3 1 2.3 2.2 2.4.6 0 1.2-.2 1.7-.6.4-.4.7-1 .7-1.6z" class="st6"/><ellipse cx="307.9" cy="232" class="st6" rx="2.3" ry="2.3"/><path d="M303.4 238.5c0-1.3-1.1-2.3-2.3-2.3s-2.3 1.1-2.3 2.3a2.3 2.3 0 0 0 3.9 1.7c.5-.4.7-1 .7-1.7zm6.8 0c0-1.3-1.1-2.3-2.3-2.3s-2.3 1.1-2.3 2.3a2.3 2.3 0 0 0 3.9 1.7c.5-.4.7-1 .7-1.7zm9.3-13.1c0-1.3-1-2.3-2.3-2.3-1.3 0-2.3 1-2.3 2.3 0 1.3 1 2.3 2.3 2.3 1.3 0 2.3-1 2.3-2.3zm6.8 0c0-1.3-1-2.3-2.3-2.3-1.3 0-2.3 1-2.3 2.3 0 1.3 1 2.3 2.3 2.3 1.3 0 2.3-1 2.3-2.3zm-6.8 6.6c0-1.3-1-2.3-2.2-2.4-1.3 0-2.3 1-2.4 2.2 0 1.3 1 2.3 2.2 2.4.6 0 1.2-.2 1.7-.6.4-.4.7-1 .7-1.6z" class="st6"/><ellipse cx="323.9" cy="232" class="st6" rx="2.3" ry="2.3"/><path d="M319.5 238.5c0-1.3-1.1-2.3-2.3-2.3s-2.3 1.1-2.3 2.3a2.3 2.3 0 0 0 3.9 1.7c.5-.4.7-1 .7-1.7zm6.8 0c-.1-1.3-1.1-2.3-2.4-2.2-1.3.1-2.3 1.1-2.2 2.4a2.4 2.4 0 0 0 2.3 2.2c1.3 0 2.3-1 2.3-2.3v-.1zm-22.9 7.5c0-1.3-1-2.3-2.3-2.3-1.3 0-2.3 1-2.3 2.3 0 1.2 1 2.2 2.2 2.3 1.3.1 2.3-.9 2.4-2.2v-.1zm6.8 0c0-1.3-1-2.3-2.3-2.3-1.3 0-2.3 1-2.3 2.3 0 1.3 1 2.3 2.3 2.3 1.3 0 2.3-1 2.3-2.3 0 0 0-.1 0 0zm-6.8 6.5c0-1.3-1-2.3-2.3-2.3-1.3 0-2.3 1-2.3 2.3 0 1.2 1 2.2 2.2 2.3 1.3.1 2.3-.9 2.4-2.2v-.1zm6.8 0c0-1.3-1-2.3-2.3-2.3-1.3 0-2.3 1-2.3 2.3 0 1.3 1 2.3 2.3 2.3 1.3 0 2.3-1 2.3-2.3zm-6.8 6.6c0-1.3-1-2.3-2.3-2.3-1.3 0-2.3 1-2.3 2.3 0 1.2 1 2.2 2.2 2.3 1.3.1 2.3-.9 2.4-2.2v-.1zm6.8 0c0-1.3-1-2.3-2.3-2.3s-2.3 1-2.3 2.3 1 2.3 2.3 2.3c1.3 0 2.3-1 2.3-2.3zm9.3-13.1c0-1.3-1-2.3-2.3-2.3-1.3 0-2.3 1-2.3 2.3 0 1.3 1 2.3 2.3 2.3 1.3 0 2.3-1 2.3-2.3 0 0 0-.1 0 0zm6.8 0c0-1.3-1-2.3-2.3-2.3-1.3 0-2.3 1-2.3 2.3 0 1.3 1 2.3 2.3 2.3 1.3 0 2.3-1 2.3-2.3 0 0 0-.1 0 0zm-6.8 6.5c0-1.3-1-2.3-2.3-2.3-1.3 0-2.3 1-2.3 2.3 0 1.3 1 2.3 2.3 2.3 1.3 0 2.3-1 2.3-2.3zm6.8 0c0-1.3-1-2.3-2.3-2.3-1.3 0-2.3 1-2.3 2.3 0 1.3 1 2.3 2.3 2.3 1.3 0 2.3-1 2.3-2.3zm-6.8 6.6c0-1.3-1-2.3-2.3-2.3s-2.3 1-2.3 2.3 1 2.3 2.3 2.3c1.3 0 2.3-1 2.3-2.3zm6.8 0c0-1.3-1-2.3-2.3-2.3s-2.3 1-2.3 2.3 1 2.3 2.3 2.3c1.3 0 2.3-1 2.3-2.3z" class="st6"/><path fill="#49ba6f" d="M.1 266.3h359v13.4H.2l-.1-13.4z"/><path d="M25.3 266.1h1v5.8h-1v-5.8z" class="st11"/><path d="M21.4 263.8c.1 2.4 2 4.3 4.4 4.3v-14.6s-4.4 7.9-4.4 10.3z" class="st8"/><path d="M30.2 263.8c0-2.4-4.4-10.4-4.4-10.4v14.7c2.4 0 4.3-1.9 4.4-4.3z" class="st9"/><path d="M8.8 266.1h1v5.8h-1v-5.8z" class="st11"/><path d="M4.9 263.8c.1 2.4 2 4.3 4.4 4.3v-14.6s-4.4 7.9-4.4 10.3z" class="st8"/><path d="M13.7 263.8c0-2.4-4.4-10.4-4.4-10.4v14.7c2.4 0 4.3-1.9 4.4-4.3z" class="st9"/><path d="M35.9 266.1h1v5.8h-1v-5.8z" class="st11"/><path d="M32 263.8c.1 2.4 2 4.3 4.4 4.3v-14.6s-4.4 7.9-4.4 10.3z" class="st8"/><path d="M40.8 263.8c0-2.4-4.4-10.4-4.4-10.4v14.7c2.4 0 4.3-1.9 4.4-4.3z" class="st9"/><path d="M91.3 266.1h1v5.8h-1v-5.8z" class="st11"/><path d="M87.4 263.8c.1 2.4 2 4.3 4.4 4.3v-14.6s-4.4 7.9-4.4 10.3z" class="st8"/><path d="M96.2 263.8c0-2.4-4.4-10.4-4.4-10.4v14.7c2.4 0 4.3-1.9 4.4-4.3z" class="st9"/><path d="M101.9 266.1h1v5.8h-1v-5.8z" class="st11"/><path d="M98 263.8c.1 2.4 2 4.3 4.4 4.3v-14.6s-4.4 7.9-4.4 10.3z" class="st8"/><path d="M106.8 263.8c0-2.4-4.4-10.4-4.4-10.4v14.7c2.4 0 4.3-1.9 4.4-4.3z" class="st9"/><path d="M140.6 266.1h1v5.8h-1v-5.8z" class="st11"/><path d="M136.8 263.8a4.4 4.4 0 0 0 4.3 4.3v-14.6s-4.4 7.9-4.3 10.3z" class="st8"/><path d="M145.6 263.8c0-2.4-4.4-10.4-4.4-10.4v14.7c2.4 0 4.2-1.9 4.4-4.3z" class="st9"/><path d="M229.4 266.1h1v5.8h-1v-5.8z" class="st11"/><path d="M225.5 263.8c.1 2.4 2 4.3 4.4 4.3v-14.6s-4.4 7.9-4.4 10.3z" class="st8"/><path d="M234.2 263.8c0-2.4-4.3-10.4-4.3-10.4v14.7c2.4 0 4.2-1.9 4.3-4.3z" class="st9"/><path d="M212.9 266.1h1v5.8h-1v-5.8z" class="st11"/><path d="M209 263.8c.1 2.4 2 4.3 4.4 4.3v-14.6s-4.4 7.9-4.4 10.3z" class="st8"/><path d="M217.8 263.8c0-2.4-4.4-10.4-4.4-10.4v14.7c2.4 0 4.3-1.9 4.4-4.3z" class="st9"/><path d="M239.9 266.1h1v5.8h-1v-5.8z" class="st11"/><path d="M236 263.8c.1 2.4 2 4.3 4.4 4.3v-14.6s-4.4 7.9-4.4 10.3z" class="st8"/><path d="M244.8 263.8c0-2.4-4.3-10.4-4.3-10.4v14.7c2.4 0 4.2-1.9 4.3-4.3z" class="st9"/><path d="M295.4 266.1h1v5.8h-1v-5.8z" class="st11"/><path d="M291.5 263.8c.1 2.4 2 4.3 4.4 4.3v-14.6s-4.4 7.9-4.4 10.3z" class="st8"/><path d="M300.2 263.8c0-2.4-4.3-10.4-4.3-10.4v14.7c2.4 0 4.2-1.9 4.3-4.3z" class="st9"/><path d="M306 266.1h1v5.8h-1v-5.8z" class="st11"/><path d="M302.1 263.8c.1 2.4 2 4.3 4.4 4.3v-14.6s-4.4 7.9-4.4 10.3z" class="st8"/><path d="M310.8 263.8c0-2.4-4.4-10.4-4.4-10.4v14.7c2.4 0 4.3-1.9 4.4-4.3z" class="st9"/><path d="M344.6 266.1h1v5.8h-1v-5.8z" class="st11"/><path d="M340.8 263.8c.1 2.4 2 4.3 4.4 4.3v-14.6s-4.4 7.9-4.4 10.3z" class="st8"/><path d="M349.6 263.8c0-2.4-4.4-10.4-4.4-10.4v14.7c2.4 0 4.3-1.9 4.4-4.3z" class="st9"/><path d="M349.6 96.7a5 5 0 0 0-3.3 1.3 8 8 0 0 0-10.7-3.2l-.7.4a12.5 12.5 0 0 0-17.3-4.1c-1.3.8-2.4 1.8-3.4 3a7.9 7.9 0 0 0-9.5 5.9l-.2 1.7h50.2a5 5 0 0 0-5-5h-.1z" class="st2"/><path d="M320.1 147.3h12.1v26.3h-12l-.1-26.3z" class="st4"/><path d="M197.5 213.6h-7l3.4-7 3.6 7z" class="st9"/><path d="M43.1 30.8c0-2.7-1-5.4-2.8-7.4a11.2 11.2 0 0 0-15.6-.9l-1-1.6A17.3 17.3 0 0 0 0 16.1v14.7h43.1z" class="st2"/></svg>