<svg xmlns="http://www.w3.org/2000/svg" xmlns:xlink="http://www.w3.org/1999/xlink" id="Camada_1" viewBox="0 0 360 360"><style>.st0{fill:none}.st1{fill:#7ed3d7}.st2{fill:#004860}.st3{fill:#508987}.st4{opacity:.8}.st6{fill:#edf4f3}.st8{fill:#edf7f9}.st14{opacity:.15}.st15{fill:#49ba6f}.st16{fill:#0f8433}.st17{fill:#3f9136}.st18{fill:#754c24}.st19{fill:#ce4556}.st20{fill:#e7e7e7}.st21{fill:gray}.st22{fill:#fcd197}.st23{fill:#29566d}.st24{fill:#8e8075}.st25{fill:#ef7d59}.st26{fill:#cc4825}.st27{fill:#e2edeb}.st30{fill:#efca65}.st31{fill:#336685}.st34{fill:#f49c84}.st36{opacity:.1;fill:#00c9a5;enable-background:new}</style><pattern id="a" width="211" height="101" y="360" overflow="visible" patternUnits="userSpaceOnUse" viewBox="0 -101 211 101"><path d="M0-101h211V0H0z" class="st0"/></pattern><pattern id="b" width="146" height="76" y="360" overflow="visible" patternUnits="userSpaceOnUse" viewBox="0 -76 146 76"><path d="M0-76h146V0H0z" class="st0"/></pattern><pattern id="c" width="119" height="58" y="360" overflow="visible" patternUnits="userSpaceOnUse" viewBox="0 -58 119 58"><path d="M0-58h119V0H0z" class="st0"/></pattern><pattern id="d" width="166" height="80" y="360" overflow="visible" patternUnits="userSpaceOnUse" viewBox="0 -80 166 80"><path d="M0-80h166V0H0z" class="st0"/></pattern><pattern id="e" width="116" height="61" y="360" overflow="visible" patternUnits="userSpaceOnUse" viewBox="0 -61 116 61"><path d="M0-61h116V0H0z" class="st0"/></pattern><pattern id="f" width="177" height="103" y="360" overflow="visible" patternUnits="userSpaceOnUse" viewBox="0 -103 177 103"><path d="M0-103h177V0H0z" class="st0"/></pattern><pattern id="g" width="152" height="89" y="360" overflow="visible" patternUnits="userSpaceOnUse" viewBox="0 -89 152 89"><path d="M0-89h152V0H0z" class="st0"/></pattern><path d="M0 0h360v360H0z" class="st1"/><g transform="translate(28.9 19.2)"><path d="M48.7 142.2h38.7v27.6H48.7z" class="st2"/><g class="st4" transform="translate(0 32.6)"><pattern id="SVGID_1_" class="st4" patternTransform="matrix(.4479 0 0 -.4455 -4364.6 -11507.7)" xlink:href="#a"/><path fill="url(#SVGID_1_)" d="M.2.2h94.5v45H.2z" opacity=".1"/><path d="M79.3 19.2H63.4a11 11 0 0 0 1.4-15.3c-2-2.5-5.1-3.9-8.3-3.9H10.8C4.9 0 0 4.9 0 10.8s4.9 10.8 10.8 10.8h15.9a11 11 0 0 0-1.4 15.3c2.1 2.5 5.1 3.9 8.3 3.9h45.7a10.8 10.8 0 0 0 0-21.6z" class="st6"/></g><g class="st4" transform="translate(226.8 207.6)"><pattern id="SVGID_2_" class="st4" patternTransform="matrix(.4469 0 0 -.4441 -4129.6 -11656.7)" xlink:href="#b"/><path fill="url(#SVGID_2_)" d="M.1.2h65.3V34H.1z" opacity=".1"/><path d="M55 11.1A6.2 6.2 0 0 0 51.2 0H25.1a6.2 6.2 0 0 0-4.4 10.6H9.9c-5.5 0-10 4.5-10 10s4.5 10 10 10h41.9a10 10 0 0 0 9.9-10 9.7 9.7 0 0 0-6.7-9.5z" class="st8"/></g><g class="st4" transform="translate(261.6 293.8)"><pattern id="SVGID_3_" class="st4" patternTransform="matrix(.4462 0 0 -.4422 -4121.5 -11678.3)" xlink:href="#c"/><path fill="url(#SVGID_3_)" d="M.3.2h53.1v25.6H.3z" opacity=".1"/><path d="M44.7 10.8h-8.9a6 6 0 0 0 .8-8.6A6 6 0 0 0 31.9 0H6.3A6.1 6.1 0 0 0 0 5.9a6 6 0 0 0 5.9 6.2H15.1a6.2 6.2 0 0 0-.8 8.6 6.2 6.2 0 0 0 4.7 2.2h25.7c3.4.1 6.2-2.6 6.3-5.9a6.1 6.1 0 0 0-5.9-6.3l-.4.1z" class="st6"/></g><g class="st4" transform="translate(158.7 254.4)"><pattern id="SVGID_4_" class="st4" patternTransform="matrix(.4473 0 0 -.4444 -4183.3 -11687)" xlink:href="#d"/><path fill="url(#SVGID_4_)" d="M.3.2h74.3v35.5H.3z" opacity=".1"/><path d="M62.7 15.2H50.1A8.5 8.5 0 0 0 44.6.1h-36C3.8 0 0 3.8 0 8.6s3.8 8.6 8.6 8.6h12.5a8.5 8.5 0 0 0 5.5 15.1h36.1c4.7 0 8.6-3.8 8.6-8.6s-3.9-8.5-8.6-8.5z" class="st6"/></g><g class="st4"><path d="M55 11.1A6.2 6.2 0 0 0 51.2 0H25.1a6.2 6.2 0 0 0-4.4 10.6H10c-5.5 0-10 4.5-10 10s4.5 10 10 10h41.9a10 10 0 0 0 9.9-10c0-4.4-2.7-8.2-6.8-9.5z" class="st8" transform="translate(12.6 196.5)"/></g><pattern id="SVGID_5_" patternTransform="matrix(.4461 0 0 -.4426 -4106.2 -11507.3)" xlink:href="#e"/><path fill="url(#SVGID_5_)" d="M265.8 105.9h51.8v27h-51.8z" opacity=".1"/><path d="M306.5 129.6c4.3 0 7.8-3.6 7.7-7.9 0-4.3-3.5-7.7-7.7-7.7H298c1.9-1.9 1.9-5 0-6.9a5 5 0 0 0-3.5-1.4H274a5 5 0 0 0-3 8.8 7.9 7.9 0 0 0-5 9.9 8 8 0 0 0 7.4 5.4h33.1z" class="st8"/><g class="st4" transform="translate(199)"><pattern id="SVGID_6_" class="st4" patternTransform="matrix(.4475 0 0 -.4456 -4171.4 -11482.2)" xlink:href="#f"/><path fill="url(#SVGID_6_)" d="M.3.2h79.2v45.9H.3z" opacity=".1"/><path d="M66.3 42.9a10 10 0 0 0 10-9.9 10 10 0 0 0-9.9-10H61a10 10 0 0 0-1.4-10.6h1c3.4 0 6.2-2.8 6.2-6.2S63.9 0 60.5 0H34.4a6.2 6.2 0 0 0-6.2 6.2c0 .9.2 1.9.6 2.7H10a10 10 0 0 0-10 10 10 10 0 0 0 10 10h5.4a10 10 0 0 0 9 14.1h41.9z" class="st6"/></g><g class="st4" transform="translate(2.1 282.4)"><pattern id="SVGID_7_" class="st4" patternTransform="matrix(.447 0 0 -.4449 -4372.2 -11753)" xlink:href="#g"/><path fill="url(#SVGID_7_)" d="M.2.1h67.9v39.6H.2z" opacity=".1"/><path d="M8.4 36.4a8.4 8.4 0 1 1 0-16.8H13c-1.4-3-.9-6.5 1.2-9h-.9A5.3 5.3 0 0 1 8 5.3C8 2.4 10.4 0 13.3 0h22.1a5.3 5.3 0 0 1 4.8 7.6h16c4.7.1 8.4 3.9 8.3 8.5 0 4.6-3.8 8.3-8.3 8.3h-4.6a8.4 8.4 0 0 1-7.6 12H8.4z" class="st6"/></g><path d="M31.1 9.7L28 12.4l-4.4-5.2-2.2 1.9-3.7-4.4-6.8 5.8L1.7 0 0 1.5 9.1 12l-6.2 5.2 3.7 4.4-2.3 2 4.4 5.2-2.8 2.4 33.4 39.2L64.5 49 31.1 9.7z" transform="translate(64 50.7)"/><path d="M94.2 59.6L91 62.3l-4.4-5.2-2.2 1.9-3.7-4.4-6.8 5.8-9.1-10.5-1.7 1.5 9.1 10.5-6.2 5.2 3.7 4.4-2.3 2 4.4 5.2L69 81l33.4 39.2 25.2-21.4-33.4-39.2z" class="st15"/><path d="M78.3 77.7h3.3v7.7h-3.3z" class="st2" transform="rotate(-40.4 80 81.6)"/><path d="M84.1 83.2c.1.2.1.4-.1.5l-2.5 2H81c-.1-.2-.1-.4.1-.5l2.5-2h.5z" class="st16"/><path d="M83 73.7h3.3v7.7H83z" class="st2" transform="rotate(-40.4 84.6 77.5)"/><path d="M88.7 79.4c.1.2.1.4-.1.5l-2.5 2h-.5c-.1-.2-.1-.4.1-.5l2.5-2h.5z" class="st16"/><path d="M87.6 69.7h3.3v7.7h-3.3z" class="st2" transform="rotate(-40.4 89.3 73.6)"/><path d="M93.5 75.4c.1.2.1.4-.1.5l-2.5 2h-.5c-.1-.2-.1-.4.1-.5l2.5-2h.5z" class="st16"/><path d="M92.3 65.7h3.3v7.7h-3.3z" class="st2" transform="rotate(-40.4 94 69.6)"/><path d="M98.4 71.4c.1.2.1.4-.1.5l-2.5 2h-.5c-.1-.2-.1-.4.1-.5l2.5-2c.1-.2.3-.2.5 0z" class="st16"/><path d="M85.2 85.8h3.3v7.7h-3.3z" class="st2" transform="rotate(-40.4 86.8 89.6)"/><path d="M90.9 91.3c.1.2.1.4-.1.5l-2.5 2h-.5c-.1-.2-.1-.4.1-.5l2.5-2c.1-.2.3-.2.5 0z" class="st16"/><path d="M89.9 81.8h3.3v7.7h-3.3z" class="st2" transform="rotate(-40.4 91.5 85.6)"/><path d="M95.5 87.5c.1.2.1.4-.1.5l-2.5 2h-.5c-.1-.2-.1-.4.1-.5l2.5-2c.1-.2.3-.2.5 0 0-.1 0-.1 0 0z" class="st16"/><path d="M94.5 77.8h3.3v7.7h-3.3z" class="st2" transform="rotate(-40.4 96.2 81.7)"/><path d="M100.2 83.5c.1.2.1.4-.1.5l-2.5 2h-.5c-.1-.2-.1-.4.1-.5l2.5-2c.1-.2.4-.2.5 0z" class="st16"/><path d="M99.2 73.8h3.3v7.7h-3.3z" class="st2" transform="rotate(-40.4 100.9 77.7)"/><path d="M105.1 79.4c.1.2.1.4-.1.5l-2.5 2h-.5c-.1-.2-.1-.4.1-.5l2.5-2h.5z" class="st16"/><path d="M92 93.9h3.3v7.7H92z" class="st2" transform="rotate(-40.4 93.7 97.7)"/><path d="M97.8 99.3c.1.2.1.4-.1.5l-2.5 2h-.5c-.1-.2-.1-.4.1-.5l2.5-2h.5z" class="st16"/><path d="M96.8 89.8h3.3v7.7h-3.3z" class="st2" transform="rotate(-40.4 98.4 93.7)"/><path d="M102.5 95.5c.1.2.1.4-.1.5l-2.5 2h-.5c-.1-.2-.1-.4.1-.5l2.5-2h.5c-.1 0 0 0 0 0z" class="st16"/><path d="M101.4 85.9h3.3v7.7h-3.3z" class="st2" transform="rotate(-40.4 103 89.8)"/><path d="M107.2 91.5c.1.2.1.4-.1.5l-2.5 2h-.5c-.1-.2-.1-.4.1-.5l2.5-2h.5z" class="st16"/><path d="M106.1 81.9h3.3v7.7h-3.3z" class="st2" transform="rotate(-40.4 107.8 85.7)"/><path d="M112.1 87.5c.1.2.1.4-.1.5l-2.5 2h-.5c-.1-.2-.1-.4.1-.5l2.5-2c.1-.2.3-.2.5 0 0-.1 0-.1 0 0z" class="st16"/><path d="M99.7 103.3h3.3v7.7h-3.3z" class="st2" transform="rotate(-40.4 101.4 107.2)"/><path d="M105.1 108.7c.1.2.1.4-.1.5l-2.5 2h-.5c-.1-.2-.1-.4.1-.5l2.5-2h.5z" class="st16"/><path d="M104.4 99.3h3.3v7.7h-3.3z" class="st2" transform="rotate(-40.4 106 103.1)"/><path d="M110 104.7c.1.2.1.4-.1.5l-2.5 2h-.5c-.1-.2-.1-.4.1-.5l2.5-2h.5z" class="st16"/><path d="M109.1 95.4h3.3v7.7h-3.3z" class="st2" transform="rotate(-40.4 110.7 99.2)"/><path d="M114.7 100.7c.1.2.1.4-.1.5l-2.5 2h-.5c-.1-.2-.1-.4.1-.5l2.5-2h.5z" class="st16"/><path d="M113.8 91.3h3.3V99h-3.3z" class="st2" transform="rotate(-40.4 115.4 95.2)"/><path d="M119.3 96.9c.1.2.1.4-.1.5l-2.5 2h-.5c-.1-.2-.1-.4.1-.5l2.5-2c.2-.2.4-.2.5 0z" class="st16"/><path d="M245.3 123.6a7.3 7.3 0 0 0-8.4-4.9 5.5 5.5 0 0 0-9.8 1.2l-1.1.1a3.2 3.2 0 0 0-2.1 4c.2.6.6 1.2 1.1 1.5a5.6 5.6 0 0 0 2.7 7.4l.9.3a4.6 4.6 0 0 0 1.9 6.1c2.2 1.1 4.9.3 6.1-1.9l.3-.7a5.6 5.6 0 0 0 7.2-3.3c.4-1.1.5-2.2.2-3.3a7.5 7.5 0 0 0 1-6.5z" class="st17"/><path d="M236.5 130.1l-5.3-1.4 3.6-4.1a1 1 0 0 0-.1-1.3 1 1 0 0 0-1.3.1l-4.4 5-15.5 4.9.5 1.7 15.5-4.9 6.5 1.7h.2c.5 0 .9-.4.9-.9.1-.4-.2-.7-.6-.8z" class="st18"/><path d="M67.6 117.9a7.2 7.2 0 0 0 2.3 9.4c-.7 3 1.2 6 4.2 6.7 1.1.3 2.3.1 3.4-.3.2.3.5.5.9.7 1.5.8 3.4.3 4.3-1.2a4 4 0 0 0 .4-1.8c2.9-1 4.5-4.1 3.5-7l-.4-.8a4.5 4.5 0 1 0-2.5-8.7l-.7.3a5.5 5.5 0 0 0-9.8-.7 6.3 6.3 0 0 0-5.6 3.4z" class="st17"/><path d="M78.3 119.8l2.7 4.8-5.4.2c-.5 0-.9.4-.9.9s.4.9.9.9l6.7-.3 14.3 7.9.8-1.5-14.3-7.9-3.3-5.9-.1-.2c-.3-.4-.9-.4-1.3 0-.2.3-.2.7-.1 1.1z" class="st18"/><path d="M242.6 198.7c1.6-3.4.3-7.3-2.9-9.2.5-3-1.6-5.9-4.7-6.4-1.2-.2-2.3 0-3.4.5a3.3 3.3 0 0 0-4.5 0c-.7.7-1.1 1.8-.9 2.8a5.6 5.6 0 0 0-2.7 8.1 4.4 4.4 0 0 0-2.7 5.7 4.4 4.4 0 0 0 5.7 2.7l.7-.3a5.6 5.6 0 0 0 7.5 2.5 5 5 0 0 0 2.4-2.4 6.8 6.8 0 0 0 5.5-4z" class="st17"/><path d="M231.7 197.6l-3-4.6 5.4-.6c.5-.1.9-.5.8-1s-.5-.9-1-.8l-6.7.7-14.8-6.9-.7 1.6 14.8 6.9 3.7 5.7c.3.4.8.5 1.2.3.5-.4.6-.9.3-1.3z" class="st18"/><path d="M194.1 96.5c.8-2.3-.5-4.8-2.8-5.5a4.4 4.4 0 0 0-4 .6V91c0-2.4-2-4.4-4.4-4.4-1.5 0-3 .8-3.7 2.1a5.4 5.4 0 0 0-3.5 6.8c.6 2 2.4 3.5 4.5 3.7l1.4-.2c.4 2.4 2.7 4 5.1 3.6l1.2-.4c1 2.2 3.6 3.2 5.8 2.2s3.2-3.6 2.2-5.8c-.2-.8-.9-1.6-1.8-2.1zM137.5 222.4a4.5 4.5 0 0 0-3.9-2.3l-1.4.2a4.4 4.4 0 0 0-6.3-3.2c-1-2.2-3.6-3.2-5.8-2.2-2.2 1-3.2 3.6-2.2 5.8.4.9 1.1 1.6 2 2.1-.8 2.3.5 4.8 2.7 5.5.5.2.9.2 1.4.2a5 5 0 0 0 2.6-.8v.6a4.4 4.4 0 0 0 8.2 2.3c2.1 1.1 4.8.3 5.9-1.9 1.1-2.1.3-4.8-1.9-5.9a5 5 0 0 0-1.3-.4zM96.2 185.3c.4-1.7-.2-3.4-1.5-4.6l-1.2-.8c1.3-2.2.6-5.1-1.6-6.4l-1.3-.5c.8-2.5-.6-5.1-3.1-5.9s-5.1.6-5.9 3.1c-.3 1-.3 2.1.1 3.1a4.7 4.7 0 0 0-1.7 6.4 4.6 4.6 0 0 0 3.6 2.3l-.4.5c-1.7 2-1.5 4.9.5 6.6 1.2 1.1 3 1.4 4.5.9a4.7 4.7 0 0 0 7.9 1.4 4.6 4.6 0 0 0 .1-6.1z" class="st15"/><path d="M0 18.8L21.8 0l29.5 33.8L53.1 58l-23.6-5.3L0 18.8z" transform="translate(188.3 195.1)"/><path d="M187.4 213l21.8-18.8 29.5 33.8 1.8 24.2-23.6-5.3-29.5-33.9z" class="st15"/><path d="M198 208.4h20.9v13.5H198z" class="st2" transform="rotate(-40.8 208.5 215.1)"/><path d="M202.8 228.2l5.2 3.7 6.5-5.6 4-3.5 6.8-5.8-2.9-5.7-.2-.3c-.5 1.1-1.8 1.7-2.9 1.2a2.2 2.2 0 0 0-1.6 2.7c-.1-.4-.6-.6-1-.5-.4.1-.6.6-.5 1l.3.4c-.6-.4-1.4-.2-1.8.4-.3.4-.3.9-.1 1.3-.4-.4-1-.3-1.4.1-.3.4-.4.9-.1 1.3-.2-.4-.6-.6-1-.5-.4.2-.6.6-.5 1 .1.1.1.3.3.3-.6-.4-1.4-.2-1.8.4a1 1 0 0 0 0 1.3 1 1 0 0 0-1.4 0c-.4.3-.4.9-.1 1.3a1 1 0 0 0-1.4 0c-.3.4-.4.9-.1 1.3a1 1 0 0 0-1.4 0c-.4.3-.4.9-.1 1.3a1 1 0 0 1-1.4-.1c-.4.4-.5 1-.1 1.4a1 1 0 0 0-1.4 0 1 1 0 0 0-.1 1.3c0 .2.1.2.2.3z" class="st19"/><path d="M225.9 222.6h4.2v4.2h-4.2z" class="st2" transform="rotate(-41 228 224.7)"/><path d="M224.5 224.6v-.5l3.5-3.1h.5v.5l-3.5 3.1c-.2.2-.4.1-.5 0z" class="st16"/><path d="M213.3 233.7h4.2v4.2h-4.2z" class="st2" transform="rotate(-41 215.4 235.8)"/><path d="M211.7 235.7v-.5l3.5-3.1h.5v.5l-3.5 3.1h-.5z" class="st16"/><path d="M219.8 227.5h7.5v9.8h-7.5z" class="st2" transform="rotate(-41 223.5 232.4)"/><path d="M216.9 231.2v-.5l5.9-5.2h.5v.5l-5.9 5.1c-.2.2-.4.2-.5.1z" class="st16"/><path d="M78 27.6L77.5 0H66.1v11.3h-4.6V0h-6.1v11.3h-4.6V0h-6.1v11.3h-4.6V0H34v11.3h-4.6V0h-6.1v11.3H19V0H0l14.6 27.6H19V16.3h4.6v11.3h6.1V16.3h4.6v11.3h6V16.3h4.6v11.3H51V16.3h4.6v11.3h6.1V16.3h4.6v11.3H78z" transform="translate(16.4 143)"/><path d="M93.5 169.8l-.6-27.6H81.6v11.3H77v-11.3h-6.1v11.3h-4.6v-11.3h-6.1v11.3h-4.6v-11.3h-6.1v11.3h-4.6v-11.3H39v11.3h-4.6v-11.3h-19L30 169.8h4.4v-11.3H39v11.3h6.1v-11.3h4.6v11.3h6v-11.3h4.6v11.3h6.1v-11.3H71v11.3h6v-11.3h4.6v11.3h11.9z" class="st20"/><path d="M34.4 158.5H39v11.3h-4.6z" class="st2"/><path d="M39 169.8v-11.4c0-.3.3-.6.6-.6s.6.3.6.6v11.4" class="st21"/><path d="M45.1 158.5h4.6v11.3h-4.6z" class="st2"/><path d="M49.7 169.8v-11.4c0-.3.3-.6.6-.6s.6.3.6.6v11.4" class="st21"/><path d="M55.7 158.5h4.6v11.3h-4.6z" class="st2"/><path d="M60.3 169.8v-11.4c0-.3.2-.6.6-.6.3 0 .6.3.6.6v11.4" class="st21"/><path d="M66.3 158.5h4.6v11.3h-4.6z" class="st2"/><path d="M70.9 169.8v-11.4c0-.3.2-.6.6-.6.3 0 .6.3.6.6v11.4" class="st21"/><path d="M77 158.5h4.6v11.3H77z" class="st2"/><path d="M81.6 169.8v-11.4c0-.3.2-.6.6-.6.3 0 .6.3.6.6v11.4" class="st21"/><path d="M34.4 142.2H39v11.3h-4.6z" class="st2"/><path d="M39 142.2v11.4c0 .3.3.6.6.6s.6-.3.6-.6v-11.4" class="st21"/><path d="M45.1 142.2h4.6v11.3h-4.6z" class="st2"/><path d="M49.7 142.2v11.4c0 .3.3.6.6.6s.6-.3.6-.6v-11.4" class="st21"/><path d="M55.7 142.2h4.6v11.3h-4.6z" class="st2"/><path d="M60.3 142.2v11.4c0 .3.2.6.6.6.3 0 .6-.3.6-.6v-11.4" class="st21"/><path d="M66.3 142.2h4.6v11.3h-4.6z" class="st2"/><path d="M70.9 142.2v11.4c0 .3.2.6.6.6.3 0 .6-.3.6-.6v-11.4" class="st21"/><path d="M77 142.2h4.6v11.3H77z" class="st2"/><path d="M81.6 142.2v11.4c0 .3.2.6.6.6.3 0 .6-.3.6-.6v-11.4" class="st21"/><path d="M263.7 160.1h6.8v12.6h-6.8z" class="st22" transform="rotate(-.6 267.1 166.4) scale(.99995)"/><path d="M.2.2h48.6v37.1H.2z" transform="matrix(.9999 -.01 .01 .9999 216.1 141)"/><path d="M215.6 140.1h48.6v37.1h-48.6z" class="st22" transform="rotate(-.6 239.9 158.7) scale(.99995)"/><path d="M215.6 153.1h17.9v13h-17.9z" class="st23" transform="rotate(-.6 224.5 159.6) scale(.99995)"/><path d="M251.6 168.3h6.9v5h-6.9z" class="st23" transform="rotate(-.6 255 170.7) scale(.99995)"/><path d="M251.7 167.8c-.2 0-.3.1-.3.3l.1 5.3c0 .2.1.3.3.3.2 0 .3-.1.3-.3l-.1-5.3-.3-.3z" class="st24"/><path d="M238.8 168.4h6.9v5h-6.9z" class="st23" transform="rotate(-.6 242.3 170.9) scale(.99995)"/><path d="M238.9 168c-.2 0-.3.1-.3.3l.1 5.3c0 .2.1.3.3.3.2 0 .3-.1.3-.3l-.1-5.3c0-.2-.2-.3-.3-.3z" class="st24"/><path d="M227.1 168.5h6.9v5h-6.9z" class="st23" transform="rotate(-.6 230.5 171) scale(.99995)"/><path d="M227.1 168.1c-.2 0-.3.1-.3.3l.1 5.3c0 .2.1.3.3.3.2 0 .3-.1.3-.3l-.1-5.3c0-.2-.2-.3-.3-.3z" class="st24"/><path d="M226.8 144.9h6.9v5h-6.9z" class="st23" transform="rotate(-.6 230.3 147.4) scale(.99995)"/><path d="M226.8 144.4c-.2 0-.3.1-.3.3l.1 5.3c0 .2.1.3.3.3.2 0 .3-.1.3-.3l-.1-5.3c0-.2-.1-.3-.3-.3z" class="st24"/><path d="M238.8 160.4h6.9v5h-6.9z" class="st23" transform="rotate(-.6 242.2 162.9) scale(.99995)"/><path d="M238.8 160c-.2 0-.3.1-.3.3l.1 5.3c0 .2.1.3.3.3.2 0 .3-.1.3-.3l-.1-5.3c0-.2-.1-.3-.3-.3z" class="st24"/><path d="M238.7 152.8h6.9v5h-6.9z" class="st23" transform="rotate(-.6 242.1 155.2) scale(.99995)"/><path d="M238.7 152.3c-.2 0-.3.1-.3.3l.1 5.3c0 .2.1.3.3.3.2 0 .3-.1.3-.3l-.1-5.3c0-.2-.1-.3-.3-.3z" class="st24"/><path d="M238.6 144.8h6.9v5h-6.9z" class="st23" transform="rotate(-.6 242 147.2) scale(.99995)"/><path d="M238.6 144.3c-.2 0-.3.1-.3.3l.1 5.3c0 .2.1.3.3.3.2 0 .3-.1.3-.3l-.1-5.3c0-.1-.1-.3-.3-.3.1 0 0 0 0 0z" class="st24"/><path d="M251.5 160.3h6.9v5h-6.9z" class="st23" transform="rotate(-.6 255 162.7) scale(.99995)"/><path d="M251.6 159.8c-.2 0-.3.1-.3.3l.1 5.3c0 .2.1.3.3.3.2 0 .3-.1.3-.3l-.1-5.3-.3-.3z" class="st24"/><path d="M251.5 152.6h6.9v5h-6.9z" class="st23" transform="rotate(-.6 254.9 155.1) scale(.99995)"/><path d="M251.5 152.2c-.2 0-.3.1-.3.3l.1 5.3c0 .2.1.3.3.3.2 0 .3-.1.3-.3l-.1-5.3c0-.2-.2-.3-.3-.3z" class="st24"/><path d="M251.4 144.6h6.9v5h-6.9z" class="st23" transform="rotate(-.6 254.8 147.1) scale(.99995)"/><path d="M251.4 144.2c-.2 0-.3.1-.3.3l.1 5.3c0 .2.1.3.3.3.2 0 .3-.1.3-.3l-.1-5.3c0-.2-.1-.3-.3-.3z" class="st24"/><path d="M158.2 1h12.6v6.8h-12.6z" class="st20"/><path d="M0 0h37.1v88H0z" transform="translate(139 8.7)"/><path d="M138 7.8h37.1v88H138z" class="st20"/><path d="M176 8.4c0 .7-.6 1.3-1.3 1.3h-36.4c-.7 0-1.3-.6-1.3-1.3 0-.7.6-1.3 1.3-1.3h36.4c.8 0 1.3.6 1.3 1.3z" class="st21"/><path d="M150.7 78h13v17.8h-13zM165.6 27.5h5v6.9h-5z" class="st23"/><path d="M165.1 34.4c0 .2.1.3.3.3h5.3c.2 0 .3-.1.3-.3 0-.2-.1-.3-.3-.3h-5.3c-.2 0-.3.1-.3.3z" class="st21"/><path d="M165.6 14.4h5v6.9h-5z" class="st23"/><path d="M165.1 21.2c0 .2.1.3.3.3h5.3c.2 0 .3-.1.3-.3 0-.2-.1-.3-.3-.3h-5.3c-.2 0-.3.1-.3.3z" class="st21"/><path d="M165.6 40.3h5v6.9h-5z" class="st23"/><path d="M165.1 47.2c0 .2.1.3.3.3h5.3c.2 0 .3-.1.3-.3 0-.2-.1-.3-.3-.3h-5.3c-.2 0-.3.1-.3.3z" class="st21"/><path d="M157.5 40.3h5v6.9h-5z" class="st23"/><path d="M157.1 47.2c0 .2.1.3.3.3h5.3c.2 0 .3-.1.3-.3 0-.2-.1-.3-.3-.3h-5.3c-.2 0-.3.1-.3.3z" class="st21"/><path d="M149.9 40.3h5v6.9h-5z" class="st23"/><path d="M149.4 47.2c0 .2.1.3.3.3h5.3c.2 0 .3-.1.3-.3 0-.2-.1-.3-.3-.3h-5.3c-.2 0-.3.1-.3.3z" class="st21"/><path d="M141.9 40.3h4.9v6.9h-4.9z" class="st23"/><path d="M141.4 47.2c0 .2.1.3.3.3h5.4c.2 0 .3-.1.3-.3 0-.2-.1-.3-.3-.3h-5.4c-.2 0-.3.1-.3.3z" class="st21"/><path d="M165.6 53.1h5V60h-5z" class="st23"/><path d="M165.1 59.9c0 .2.1.3.3.3h5.3c.2 0 .3-.1.3-.3 0-.2-.1-.3-.3-.3h-5.3c-.2 0-.3.2-.3.3z" class="st21"/><path d="M157.5 53.1h5V60h-5z" class="st23"/><path d="M157.1 59.9c0 .2.1.3.3.3h5.3c.2 0 .3-.1.3-.3 0-.2-.1-.3-.3-.3h-5.3c-.2 0-.3.2-.3.3z" class="st21"/><path d="M149.9 53.1h5V60h-5z" class="st23"/><path d="M149.4 59.9c0 .2.1.3.3.3h5.3c.2 0 .3-.1.3-.3 0-.2-.1-.3-.3-.3h-5.3c-.2 0-.3.2-.3.3z" class="st21"/><path d="M141.9 53.1h4.9V60h-4.9z" class="st23"/><path d="M141.4 59.9c0 .2.1.3.3.3h5.4c.2 0 .3-.1.3-.3 0-.2-.1-.3-.3-.3h-5.4c-.2 0-.3.2-.3.3z" class="st21"/><path d="M141.9 65.9h4.9v6.9h-4.9z" class="st23"/><path d="M147.2 72.7c0 .2-.1.3-.3.3h-5.3c-.2 0-.3-.1-.3-.3 0-.2.1-.3.3-.3h5.3c.2 0 .3.1.3.3z" class="st21"/><path d="M149.9 65.9h5v6.9h-5z" class="st23"/><path d="M155.2 72.7c0 .2-.1.3-.3.3h-5.3c-.2 0-.3-.1-.3-.3 0-.2.1-.3.3-.3h5.3c.2 0 .3.1.3.3z" class="st21"/><path d="M157.5 65.9h5v6.9h-5z" class="st23"/><path d="M162.9 72.7c0 .2-.1.3-.3.3h-5.3c-.2 0-.3-.1-.3-.3 0-.2.1-.3.3-.3h5.3c.2 0 .3.1.3.3z" class="st21"/><path d="M165.6 65.9h5v6.9h-5z" class="st23"/><path d="M170.9 72.7c0 .2-.1.3-.3.3h-5.4c-.2 0-.3-.1-.3-.3 0-.2.1-.3.3-.3h5.3c.3 0 .4.1.4.3z" class="st21"/><path d="M165.6 77.6h5v6.9h-5z" class="st23"/><path d="M165.1 84.3c0 .2.1.3.3.3h5.3c.2 0 .3-.1.3-.3 0-.2-.1-.3-.3-.3h-5.3l-.3.3z" class="st21"/><path d="M141.9 77.6h4.9v6.9h-4.9z" class="st23"/><path d="M147.3 84.8c0 .2-.1.3-.3.3h-5.3c-.2 0-.3-.1-.3-.3 0-.2.1-.3.3-.3h5.4c.1 0 .2.1.2.3z" class="st21"/><path d="M157.5 14.4h5v6.9h-5z" class="st23"/><path d="M157.1 21.2c0 .2.1.3.3.3h5.3c.2 0 .3-.1.3-.3 0-.2-.1-.3-.3-.3h-5.3c-.2 0-.3.1-.3.3z" class="st21"/><path d="M157.5 27.5h5v6.9h-5z" class="st23"/><path d="M157.1 34.4c0 .2.1.3.3.3h5.3c.2 0 .3-.1.3-.3 0-.2-.1-.3-.3-.3h-5.3c-.2 0-.3.1-.3.3z" class="st21"/><path d="M149.9 27.5h5v6.9h-5z" class="st23"/><path d="M149.4 34.4c0 .2.1.3.3.3h5.3c.2 0 .3-.1.3-.3 0-.2-.1-.3-.3-.3h-5.3c-.2 0-.3.1-.3.3z" class="st21"/><path d="M141.9 27.5h4.9v6.9h-4.9z" class="st23"/><path d="M141.4 34.4c0 .2.1.3.3.3h5.4c.2 0 .3-.1.3-.3 0-.2-.1-.3-.3-.3h-5.4c-.2 0-.3.1-.3.3z" class="st21"/><path d="M149.9 14.4h5v6.9h-5z" class="st23"/><path d="M149.4 21.2c0 .2.1.3.3.3h5.3c.2 0 .3-.1.3-.3 0-.2-.1-.3-.3-.3h-5.3c-.2 0-.3.1-.3.3z" class="st21"/><path d="M141.9 14.4h4.9v6.9h-4.9z" class="st23"/><path d="M141.4 21.2c0 .2.1.3.3.3h5.4c.2 0 .3-.1.3-.3 0-.2-.1-.3-.3-.3h-5.4c-.2 0-.3.1-.3.3z" class="st21"/><path d="M60.4 3.3l-17 3.2L0 47.7l25.6 26.9L69 33.4l4.1-16.7L77.2 0 60.4 3.3z" transform="translate(189 55.2)"/><path d="M248.5 57.6l-17 3.2-43.4 41.2 25.6 26.9L257 87.7l4.1-16.7 4.2-16.7-16.8 3.3z" class="st25"/><path d="M232 95.8h6.9v5H232z" class="st23" transform="rotate(-43.5 235.5 98.3)"/><path d="M231 98.4c-.1.1-.1.3 0 .4l3.7 3.9c.1.1.3.1.4 0 .1-.1.1-.3 0-.4l-3.7-3.9a.3.3 0 0 0-.4 0z" class="st26"/><path d="M241.6 86.7h6.9v5h-6.9z" class="st23" transform="rotate(-43.5 245 89.2)"/><path d="M240.5 89.4c-.1.1-.1.3 0 .4l3.7 3.9c.1.1.3.1.4 0 .1-.1.1-.3 0-.4l-3.7-3.9c-.1-.1-.2-.1-.4 0z" class="st26"/><path d="M222.8 104.6h6.9v5h-6.9z" class="st23" transform="rotate(-43.5 226.2 107)"/><path d="M221.7 107.3c-.1.1-.1.3 0 .4l3.7 3.9c.1.1.3.1.4 0 .1-.1.1-.3 0-.4l-3.7-3.9a.3.3 0 0 0-.4 0z" class="st26"/><path d="M217.2 98.8h6.9v5h-6.9z" class="st23" transform="rotate(-43.5 220.7 101.3)"/><path d="M216.2 101.5c-.1.1-.1.3 0 .4l3.7 3.9c.1.1.3.1.4 0 .1-.1.1-.3 0-.4l-3.7-3.9a.3.3 0 0 0-.4 0z" class="st26"/><path d="M212 93.2h6.9v5H212z" class="st23" transform="rotate(-43.5 215.4 95.7)"/><path d="M210.9 95.9c-.1.1-.1.3 0 .4l3.7 3.9c.1.1.3.1.4 0 .1-.1.1-.3 0-.4l-3.7-3.9a.3.3 0 0 0-.4 0z" class="st26"/><path d="M206.5 87.4h6.9v5h-6.9z" class="st23" transform="rotate(-43.5 209.9 90)"/><path d="M205.4 90.1c-.1.1-.1.3 0 .4l3.7 3.9c.1.1.3.1.4 0 .1-.1.1-.3 0-.4l-3.7-3.8c-.1-.2-.3-.2-.4-.1z" class="st26"/><path d="M213.5 113.4h6.9v5h-6.9z" class="st23" transform="rotate(-43.5 217 115.9)"/><path d="M212.4 116.1c-.1.1-.1.3 0 .4l3.7 3.9c.1.1.3.1.4 0 .1-.1.1-.3 0-.4l-3.7-3.9c-.1-.1-.2-.2-.4 0z" class="st26"/><path d="M208 107.6h6.9v5H208z" class="st23" transform="rotate(-43.5 211.4 110)"/><path d="M206.9 110.3c-.1.1-.1.3 0 .4l3.7 3.9c.1.1.3.1.4 0 .1-.1.1-.3 0-.4l-3.7-3.9c-.1-.2-.2-.2-.4 0z" class="st26"/><path d="M202.7 102h6.9v5h-6.9z" class="st23" transform="rotate(-43.5 206.1 104.5)"/><path d="M201.7 104.7c-.1.1-.1.3 0 .4l3.7 3.9c.1.1.3.1.4 0 .1-.1.1-.3 0-.4l-3.7-3.9a.3.3 0 0 0-.4 0z" class="st26"/><path d="M197.2 96.2h6.9v5h-6.9z" class="st23" transform="rotate(-43.5 200.6 98.7)"/><path d="M196.2 98.9c-.1.1-.1.3 0 .4l3.7 3.9c.1.1.3.1.4 0 .1-.1.1-.3 0-.4l-3.7-3.9a.3.3 0 0 0-.4 0z" class="st26"/><path d="M236.1 80.9h6.9v5h-6.9z" class="st23" transform="rotate(-43.5 239.5 83.4)"/><path d="M235 83.6c-.1.1-.1.3 0 .4l3.7 3.9c.1.1.3.1.4 0 .1-.1.1-.3 0-.4l-3.7-3.9a.3.3 0 0 0-.4 0z" class="st26"/><path d="M226.5 90h6.9v5h-6.9z" class="st23" transform="rotate(-43.5 230 92.5)"/><path d="M225.5 92.6c-.1.1-.1.3 0 .4l3.7 3.9c.1.1.3.1.4 0 .1-.1.1-.3 0-.4l-3.7-3.9a.3.3 0 0 0-.4 0z" class="st26"/><path d="M221.2 84.4h6.9v5h-6.9z" class="st23" transform="rotate(-43.5 224.7 86.9)"/><path d="M220.2 87.1c-.1.1-.1.3 0 .4l3.7 3.9c.1.1.3.1.4 0 .1-.1.1-.3 0-.4l-3.7-3.9a.3.3 0 0 0-.4 0z" class="st26"/><path d="M215.7 78.6h6.9v5h-6.9z" class="st23" transform="rotate(-43.5 219.2 81.1)"/><path d="M214.7 81.3c-.1.1-.1.3 0 .4l3.7 3.9c.1.1.3.1.4 0 .1-.1.1-.3 0-.4l-3.7-3.9a.3.3 0 0 0-.4 0z" class="st26"/><path d="M230.8 75.4h6.9v5h-6.9z" class="st23" transform="rotate(-43.5 234.2 77.8)"/><path d="M229.8 78c-.1.1-.1.3 0 .4l3.7 3.9c.1.1.3.1.4 0 .1-.1.1-.3 0-.4l-3.7-3.9c-.2-.1-.3-.1-.4 0z" class="st26"/><path d="M225.3 69.6h6.9v5h-6.9z" class="st23" transform="rotate(-43.5 228.7 72)"/><path d="M224.2 72.2c-.1.1-.1.3 0 .4l3.7 3.9c.1.1.3.1.4 0 .1-.1.1-.3 0-.4l-3.7-3.9c-.1-.1-.2-.1-.4 0z" class="st26"/><path d="M0 .7L37.8 0l1.4 75.2-7.5 14-22 .4-8.3-13.7L0 .7z" transform="translate(139.8 217.5)"/><path d="M138.9 217.3l37.8-.7 1.4 75.2-7.5 14-22.1.4-8.3-13.7-1.3-75.2z" class="st22"/><path d="M164.1 264.7h5v11.2h-5z" class="st2" transform="matrix(.9998 -.01867 .01867 .9998 -5 3.2)"/><path d="M156.3 264.8h5V276h-5z" class="st2" transform="matrix(.9998 -.01815 .01815 .9998 -4.9 3)"/><path d="M148.9 264.7h5v11.2h-5z" class="st2" transform="rotate(-1.1 151.5 270.3)"/><path d="M148.7 280h5v11.2h-5z" class="st2" transform="rotate(-1.1 151.2 285.6) scale(.99997)"/><path d="M164.5 279.7h5v11.2h-5z" class="st2" transform="rotate(-1.1 167 285.3) scale(.99997)"/><path d="M163.8 248.8h5V260h-5z" class="st2" transform="rotate(-1.1 166.3 254.4) scale(.99997)"/><path d="M156 249h5v11.2h-5z" class="st2" transform="rotate(-1.1 158.5 254.6) scale(.99997)"/><path d="M148.1 249.1h5v11.2h-5z" class="st2" transform="rotate(-1.1 150.6 254.7) scale(.99997)"/><path d="M163.5 231.8h5V243h-5z" class="st2" transform="scale(.99997) rotate(-1.1 166 237.4)"/><path d="M155.6 231.9h5v11.2h-5z" class="st2" transform="rotate(-1.1 158 237.5) scale(.99997)"/><path d="M147.7 232.1h5v11.2h-5z" class="st2" transform="rotate(-1.1 150.2 237.7) scale(.99997)"/><path d="M163.1 286c0 2.2-1.7 4-3.8 4s-4-1.7-4-3.8a4 4 0 0 1 3.8-4c2.2-.1 4 1.7 4 3.8z" class="st2"/><path d="M2 21.8h77.2v37.5H2z" transform="rotate(-45 287.4 77)"/><path d="M47.4 206h77.2v37.5H47.4z" class="st25" transform="rotate(-45 86 224.7)"/><path d="M9.2-2.5h4.5v27.9H9.2z" transform="rotate(-44.8 329.2 76.7)"/><path d="M54.7 239.6h4.5v27.9h-4.5z" class="st26" transform="rotate(-44.8 57 253.6)"/><path d="M71.1 251.5a2.8 2.8 0 0 0-.2 3.9c1 1.1 2.8 1.2 3.9.1l.1-.1 6.2-6.2-3.9-3.9-6.1 6.2zM65.8 246.2c0 .1 0 .1 0 0-1.1 1.1-1.1 2.9 0 3.9s2.8 1.1 3.9 0l6.2-6.2L72 240l-6.2 6.2zM60.5 240.9c-1.1 1.1-1.1 2.9-.1 3.9a2.7 2.7 0 0 0 3.9 0l6.2-6.2-3.9-3.9-6.1 6.2zM55.3 235.7c-1.1 1.2-1 2.9.1 3.9s2.7 1 3.7 0l6.2-6.2-3.9-3.9-6.1 6.2zM81.2 241.5c-1.1 1.1-1.1 2.9-.1 3.9a2.7 2.7 0 0 0 3.9 0l6.2-6.2-3.9-3.9-6.1 6.2zM75.9 236.2c-1.1 1.2-1 2.9.1 3.9s2.7 1 3.8 0l6.2-6.2-4-3.9-6.1 6.2zM70.6 230.9c-1.1 1.1-1.1 2.9-.1 3.9a2.7 2.7 0 0 0 3.9 0l6.2-6.2-3.9-3.9-6.1 6.2zM65.3 225.6a2.7 2.7 0 1 0 3.7 4l.1-.1 6.2-6.1-3.9-3.9-6.1 6.1zM92.2 230.5c-1.1 1.1-1.1 2.9-.1 3.9a2.7 2.7 0 0 0 3.9 0l6.2-6.2-3.9-3.9-6.1 6.2zM86.9 225.2c-1.1 1.1-1 2.9.1 3.9s2.7 1 3.8 0l6.2-6.2-3.9-3.9-6.2 6.2zM81.6 219.9c-1.1 1.1-1.1 2.9-.1 3.9a2.7 2.7 0 0 0 3.9 0l6.2-6.2-3.9-3.9-6.1 6.2zM76.3 214.6a2.7 2.7 0 0 0-.2 3.9c1 1.1 2.8 1.2 3.9.2l.2-.2 6.2-6.2-3.9-3.9-6.2 6.2z" class="st23"/><path d="M95 196.2h21.4v17.7H95z" class="st23" transform="rotate(-44.8 105.7 205)"/><path d="M155.1 219.8a62 62 0 1 1 62-62 62 62 0 0 1-62 62z" class="st27"/><path fill="#159e9e" d="M155.1 100.4a57.5 57.5 0 1 1-57.5 57.5 57.4 57.4 0 0 1 57.5-57.5m0-9a66.5 66.5 0 1 0 0 133 66.5 66.5 0 0 0 0-133z"/><g class="st14"><path d="M34.4 36c0 10.1-7.7 18.4-17.2 18.4S0 46.2 0 36s7.7-18.4 17.2-18.4S34.4 25.9 34.4 36z" transform="translate(139.9 150.6)"/><path d="M19.3 39.1c-.1 1.6-2.1 2.8-2.1 2.8s-2.1-1.2-2.1-2.8c-4 1-7.1 4.7-7.9 9.4h20.1c-.9-4.7-4-8.4-8-9.4zm4.1 5.9h-3l-.2-.2.2-.2h3l.2.2c0 .1 0 .2-.2.2zM19.3 39.5zM11.7 30.5l3.6-2.2s3.8 3.4 5.9 3.6a2 2 0 0 0 1.5-.4v.6l-.1 1.1c.8-1 1.2-2.2 1.2-3.5a6.7 6.7 0 0 0-7.3-6.1 6.6 6.6 0 0 0-6.1 6.1c0 1.3.4 2.5 1.2 3.5l-.1-1.1.2-1.6z" transform="translate(139.9 150.6)"/><path d="M17.2 42l1.4-1.2c.4-.3.6-.8.7-1.2v-.8a7.3 7.3 0 0 0 3.4-5.5l.1-1.1v-.6c-.4.3-1 .4-1.5.4-2.1-.1-5.9-3.6-5.9-3.6l-3.6 2.2-.1 1.6.1 1.1a7 7 0 0 0 3.4 5.5v.8l.7 1.3c.3.4.7.8 1.3 1.1zM25 7.1a7 7 0 0 1-.5 2.5c-1 2.8-6.8 11.8-6.8 11.8-.1.2-.3.4-.6.3-.2 0-.3-.2-.3-.3 0 0-5.5-10.2-6-12-.2-.7-.4-1.5-.4-2.2.1-4 3.4-7.2 7.4-7.1 4 0 7.1 3.1 7.2 7z" transform="translate(139.9 150.6)"/><path d="M21.7 7.3a4 4 0 0 0-4.2-3.7 4 4 0 0 0-3.7 4.2 4 4 0 0 0 3.9 3.7c2.3-.1 4-2 4-4.2z" transform="translate(139.9 150.6)"/></g><path fill="#fff" d="M173.8 186.1c0 10.1-7.7 18.4-17.2 18.4s-17.2-8.2-17.2-18.4 7.7-18.4 17.2-18.4 17.2 8.3 17.2 18.4z"/><path d="M158.7 189.2c-.1 1.6-2.1 2.8-2.1 2.8s-2.1-1.2-2.1-2.8c-4 1-7.1 4.7-7.9 9.4h20.1c-.9-4.7-4-8.4-8-9.4zm4.1 5.9h-3a.2.2 0 0 1-.2-.2l.2-.2h3l.2.2-.2.2z" class="st30"/><path fill="#534741" d="M151.1 180.6l3.6-2.2s3.8 3.4 5.9 3.6a2 2 0 0 0 1.5-.4v.6l-.1 1.1c.8-1 1.2-2.2 1.2-3.5a6.7 6.7 0 0 0-7.3-6.1 6.6 6.6 0 0 0-6.1 6.1c0 1.3.4 2.5 1.2 3.5-.1-.9 0-1.8.1-2.7z"/><path fill="#f3d1bb" d="M156.6 192.1l1.4-1.2c.3-.3.6-.8.7-1.2v-.8a7.3 7.3 0 0 0 3.4-5.5l.1-1.1v-.6c-.4.3-1 .4-1.5.4-2.1-.1-5.9-3.6-5.9-3.6l-3.6 2.2c-.2.9-.2 1.8-.1 2.7a7 7 0 0 0 3.4 5.5v.8c.3.9 1.1 1.8 2.1 2.4z"/><path d="M164.4 157.1a7 7 0 0 1-.5 2.5c-1 2.8-6.8 11.8-6.8 11.8-.1.2-.3.4-.6.3-.2 0-.3-.2-.3-.3 0 0-5.5-10.2-6.1-12-.2-.7-.4-1.5-.4-2.2.1-4 3.4-7.2 7.4-7.1 4 .1 7.2 3.2 7.3 7z" class="st19"/><path d="M161.1 157.4a4 4 0 0 0-4.2-3.7 4 4 0 0 0-3.7 4.2 4 4 0 0 0 3.9 3.7c2.3-.1 4-2 4-4.2z" class="st27"/><g class="st14"><path d="M6.9 7.4c.3.3.8.3 1.1 0 .2-.2.2-.7 0-.9l-.1-.1-.5-.5-2-1.9a.8.8 0 0 0-1.1 0c-.3.3-.3.7 0 1l.1.1 2.5 2.3zM5.1 13.7c0-.4-.3-.7-.8-.7H.8c-.4 0-.8.3-.8.7 0 .4.3.7.6.8h3.7c.5-.1.8-.4.8-.8zM7.4 19.8l-.5.2-2.6 2.4c-.3.3-.3.7 0 .9l.1.1c.3.3.8.3 1.1 0l2-1.9.5-.5c.3-.2.3-.7.1-.9L8 20l-.6-.2zM14.8 0c-.5 0-.8.3-.8.7v3.4c0 .4.4.7.8.7h.1c.4 0 .7-.3.7-.7V.7c-.1-.4-.4-.7-.8-.7zM25.1 4A.8.8 0 0 0 24 4l-2 1.8-.6.6c-.3.3-.3.7 0 1 .3.3.8.3 1.1 0L25.1 5c.3-.2.3-.7 0-1 .1 0 0 0 0 0zM28.7 13H25c-.4 0-.7.3-.8.6 0 .4.3.7.6.8h3.7c.4 0 .7-.3.8-.6 0-.4-.3-.7-.6-.8.1 0 0 0 0 0zM22.6 20a.8.8 0 0 0-1.1 0c-.3.3-.3.7 0 1l.6.6 2 1.8c.3.3.8.3 1.1 0 .3-.2.3-.7.1-.9l-.1-.1-2.6-2.4z" transform="translate(143 110.3)"/><path d="M22.1 10.4a8.3 8.3 0 0 0-7.3-4.3 8.3 8.3 0 0 0-7.4 4.4 7.2 7.2 0 0 0 2.8 9.4v6a3.9 3.9 0 0 0 4 3.7h1c2.1.1 3.9-1.6 4-3.7v-6a8.3 8.3 0 0 0 2.9-3c1.1-2 1.1-4.4 0-6.5zM18 19c-.3.1-.4.4-.4.7V23h-5.7v-3.5c0-.3-.2-.5-.4-.7a5.9 5.9 0 0 1-1.2-9.5 7.2 7.2 0 0 1 4.6-1.8c1.7 0 3.3.6 4.6 1.8a5.7 5.7 0 0 1 1.9 4.3A7 7 0 0 1 18 19z" transform="translate(143 110.3)"/></g><path d="M149.3 117.2l.5.2.5-.2c.3-.2.3-.7.1-.9l-.1-.1-.5-.5-2-1.9a.8.8 0 0 0-1.1 0c-.3.2-.3.7-.1.9l.1.1 2.6 2.4zM147.5 123.5c0-.4-.4-.7-.8-.7h-3.6c-.4 0-.7.3-.7.7 0 .4.3.7.7.7h3.6c.5.1.8-.3.8-.7zM149.8 129.6l-.5.2-2.6 2.4c-.3.2-.3.7-.1.9l.1.1c.3.3.8.3 1.1 0l2-1.9.5-.5c.3-.2.3-.7.1-.9l-.1-.1a.8.8 0 0 0-.5-.2zM157.2 109.8c-.5 0-.8.3-.8.7v3.4c0 .4.3.7.7.7h.1c.4 0 .7-.3.7-.7v-3.4c0-.3-.3-.6-.7-.7zM167.5 113.8a.8.8 0 0 0-1.1 0l-2 1.8-.6.6c-.3.3-.3.7 0 1 .3.3.8.3 1.1 0l2.6-2.4c.3-.2.3-.6 0-1 .1.1 0 .1 0 0zM171.1 122.8h-3.6c-.4 0-.7.3-.7.7s.3.7.7.7h3.6c.4 0 .7-.3.7-.7s-.3-.7-.7-.7zM165 129.9a.8.8 0 0 0-1.1 0c-.3.3-.3.7 0 1l.6.6 2 1.8c.3.3.8.3 1.1 0 .3-.2.3-.7.1-.9l-.1-.1-2.6-2.4z" class="st34"/><path d="M164.5 120.2a8.3 8.3 0 0 0-7.3-4.3 8.3 8.3 0 0 0-7.4 4.4 7.2 7.2 0 0 0 2.8 9.4v6a3.9 3.9 0 0 0 4 3.7h1c2.1.1 3.9-1.6 4-3.7v-6a8.3 8.3 0 0 0 2.9-3 6.8 6.8 0 0 0 0-6.5zm-4.1 8.6c-.3.1-.4.4-.4.7v3.4h-5.7v-3.5c0-.3-.2-.5-.4-.7a5.9 5.9 0 0 1-1.2-9.5 7 7 0 0 1 4.6-1.8c1.7 0 3.3.6 4.6 1.8a5.7 5.7 0 0 1 1.9 4.3 6.7 6.7 0 0 1-3.4 5.3z" class="st30"/><g class="st14"><path d="M14.5 12.3c-.8 0-1.5.2-2.2.4a9.1 9.1 0 0 0-3.7 2.1c-.7.7-.7 1.8 0 2.4.6.6 1.6.7 2.3.1a7 7 0 0 1 3.6-1.6c1.4 0 2.7.5 3.6 1.5.7.7 1.7.7 2.4 0s.7-1.7 0-2.4a7.7 7.7 0 0 0-6-2.5z" transform="translate(110.8 131.7)"/><path d="M14.5 5.9c-1.2.1-2.5.3-3.6.6-2.3.8-4.5 1.9-6.3 3.5-.7.7-.7 1.8 0 2.4.6.6 1.6.7 2.3.1 2.1-1.9 4.8-3 7.6-3.2a9.6 9.6 0 0 1 7.5 3.2c.7.7 1.7.7 2.4 0s.7-1.7 0-2.4a12.7 12.7 0 0 0-9.9-4.2z" transform="translate(110.8 131.7)"/><path d="M28.5 5.9A18.2 18.2 0 0 0 9.4.9c-3.3 1-6.3 2.7-8.9 5-.7.7-.7 1.8 0 2.4.6.6 1.6.7 2.3.1.3-.3 5.3-4.7 11.7-5a15 15 0 0 1 11.6 4.9c.7.7 1.8.6 2.4 0 .7-.7.7-1.7 0-2.4z" transform="translate(110.8 131.7)"/></g><path d="M124.9 143.6c-.8 0-1.5.2-2.2.4a9.1 9.1 0 0 0-3.7 2.1c-.7.7-.7 1.8 0 2.4.6.6 1.6.7 2.3.1a7 7 0 0 1 3.6-1.6c1.4 0 2.7.5 3.6 1.5.7.7 1.8.6 2.4 0 .6-.7.6-1.7 0-2.4a7.8 7.8 0 0 0-6-2.5z" class="st25"/><path d="M124.9 137.2c-1.2.1-2.5.3-3.6.6-2.3.7-4.4 1.9-6.3 3.5-.7.7-.7 1.8 0 2.4.6.6 1.6.7 2.3.1 2.1-1.9 4.8-3 7.6-3.2a9.6 9.6 0 0 1 7.5 3.2c.7.7 1.8.6 2.4 0 .6-.7.6-1.7 0-2.4a12.5 12.5 0 0 0-9.9-4.2z" class="st25"/><path d="M138.9 137.2a18.2 18.2 0 0 0-19.1-5c-3.3 1-6.3 2.7-8.9 5-.7.7-.7 1.8 0 2.4.6.6 1.6.7 2.3.1.3-.3 5.3-4.7 11.7-5a15 15 0 0 1 11.6 4.9c.7.7 1.7.7 2.4 0 .7-.6.7-1.7 0-2.4z" class="st25"/><path d="M11.3 16.7c-.1-.5-.4-.8-.9-1l-.4-1.8A7.2 7.2 0 1 0 5.8.2h-.3A7.3 7.3 0 0 0 .2 8.9a7.4 7.4 0 0 0 8 5.5l.5 1.8c-.3.4-.4.9-.3 1.3l1.6 6.4c.2.8 1 1.4 1.9 1.2.8-.2 1.4-1 1.2-1.9v-.1l-1.8-6.4zM8.5 13a5.9 5.9 0 0 1-7.1-4.2c-.9-3.2 1-6.4 4.2-7.2l.3-.1.3-.1a5.9 5.9 0 0 1 2.6 11.4l-.3.2z" transform="translate(182.2 161.5)"/><path fill="#879695" d="M193.1 177.7c-.1-.5-.4-.8-.9-1l-.5-1.8a7.2 7.2 0 0 0 4-9.4 7.3 7.3 0 0 0-8.2-4.4l-.4.1a7.1 7.1 0 0 0-5.3 8.7 7.4 7.4 0 0 0 8 5.5l.5 1.8c-.3.4-.4.9-.3 1.3l1.6 6.4c.2.8 1 1.4 1.9 1.2.8-.2 1.4-1 1.2-1.9v-.1l-1.6-6.4zm-2.9-3.7a5.9 5.9 0 0 1-7.1-4.2 5.9 5.9 0 0 1 4.2-7.1l.3-.1.3-.1a6 6 0 0 1 7.1 4.3 6 6 0 0 1-4.3 7.1h-.1l-.4.1z"/><circle cx="189" cy="168.3" r="5.9" class="st36"/><g class="st14"><path d="M4.2 1.6l.2.2-.2.2a.2.2 0 0 1-.2-.2l.2-.2z" transform="translate(180.6 128)"/><path d="M9.5 0H2a2 2 0 0 0-2 2v20.1c0 1.1.9 2 2 2h7.5a2 2 0 0 0 2-2V2c-.1-1.1-1-2-2-2zM5.1 1.6h2.2l.2.2c0 .1-.1.2-.3.2H5.1a.2.2 0 0 1-.2-.2l.2-.2zm.6 21.6a.9.9 0 0 1-.9-.9c0-.5.4-.9.9-.9s.9.4.9.9-.4.9-.9.9zm4.9-2.7H.8V3.3h9.8v17.2z" transform="translate(180.6 128)"/></g><path fill="#e9e9e9" d="M184.3 129.2l.2.2-.2.2a.2.2 0 0 1-.2-.2l.2-.2z"/><path fill="#4d4d4d" d="M189.6 127.6h-7.5a2 2 0 0 0-2 2v20.1c0 1.1.9 2 2 2h7.5a2 2 0 0 0 2-2v-20.1a2 2 0 0 0-2-2zm-4.4 1.6h2.2l.2.2-.2.2h-2.2a.2.2 0 0 1-.2-.2l.2-.2zm.7 21.6a.9.9 0 0 1-.9-.9c0-.5.4-.9.9-.9s.9.4.9.9-.4.9-.9.9zm4.9-2.7H181V131h9.8v17.1z"/><path d="M180.9 131h9.8v17.1h-9.8z" class="st36"/><path d="M21.8 14.8a8.2 8.2 0 0 0 2.1-5.3C23.9 4.3 18.5 0 12 0S0 4.2 0 9.5s5.4 9.4 11.9 9.4c2.2 0 4.4-.5 6.4-1.5 3.7 4.4 9.5-.5 9.5-.5-4.5 1.4-6-2.1-6-2.1z" transform="translate(108.6 161.2)"/><path d="M129.8 175.4a8.2 8.2 0 0 0 2.1-5.3c0-5.2-5.4-9.5-11.9-9.5s-11.9 4.2-11.9 9.5 5.3 9.5 11.9 9.5c2.2 0 4.4-.5 6.4-1.5 3.7 4.4 9.5-.5 9.5-.5-4.6 1.3-6.1-2.2-6.1-2.2z" class="st1"/></g></svg>