<svg xmlns="http://www.w3.org/2000/svg" viewBox="0 0 1713.73 307.4"><defs><style>.a{fill:#2957a3;}.b{fill:#5cc554;}.c{fill:#aabcda;}.d{fill:#d8f1d6;}.e{fill:#c4eac2;}.f{fill:#97da92;}.g{fill:#e5f5e4;}.h{fill:#a8e0a4;}</style></defs><title>pharmalink</title><path class="a" d="M1090.3,0c6.2,1.3,12.4,2.3,18.4,4,58.4,16.5,98,52.8,113.5,112,10.2,39,.2,74.8-22,107.7-1.5,2.1-2.4,2.3-4.3.4q-25.5-23.81-51.1-47.4c-2.6-2.4-2.3-3.8-.3-6.3,15.2-19.4,27.8-40.1,32.8-64.6,5.6-27.3.9-52-22-70.3-16-12.7-35-16.5-55-16.1-28.5.6-54.3,10.4-78.8,24.2-3.6,2-7.5,5.9-10.9,5.5-3.2-.4-5.8-5.3-8.6-8.2a81.89,81.89,0,0,0-6.2-6.3c-3-2.5-2-3.9.5-5.9,18-14,38-23.4,60.8-27a43.41,43.41,0,0,0,5.7-1.7ZM604.7,62.8A51.29,51.29,0,0,1,646,48.1c15.5,1.2,28.3,7.3,36.5,21.7A58.67,58.67,0,0,1,712,50a58,58,0,0,1,32.5.6,36.4,36.4,0,0,1,27.1,36.2c-.3,13.5-2.7,27-5,40.3-2.8,16.8-6.5,33.4-9.5,50.1-.7,3.7-2,5.2-6,5-7.5-.4-15-.3-22.6,0-3.4,0-4-.8-3.4-4.2,4.7-23.9,9.5-47.8,13.7-71.8,1-5.8.5-12-.5-18-1.2-6.9-6.3-10.9-13.1-12.3a30.5,30.5,0,0,0-33,14.2c-6.5,10.2-8.5,21.8-10.7,33.4L671,177.9c-.6,3.1-1.5,4.4-5,4.3-7.6-.3-15.3-.4-23,0-4.2.2-4.5-1.3-3.8-4.8,4.5-22.2,9-44.5,13-66.9A73,73,0,0,0,653,90c-1-8.6-7-13.5-15.5-14.4A30.39,30.39,0,0,0,604.7,93c-6.3,12-8,25.2-10.6,38.1q-5,23.51-9.6,47.1c-.6,3.2-1.8,4-4.7,4q-11.1-.4-22.1,0c-3.1,0-3.9-.6-3.2-3.9q10.35-51,20.3-102c1.5-7.4,3.2-14.7,4.4-22.1.5-3.1,1.8-4,4.8-4q9.6.45,19.2,0c3.6-.1,4.3,1.2,3.4,4.3-.7,2.4-1.1,4.7-2,8.2Z" transform="translate(0.03 0)"/><path class="b" d="M1165.4,277.1c30.1-.8,57-11,82.6-25.9,9.2-5.3,9.2-5.4,16.6,2.3,2.3,2.3,4.3,5,6.9,7,3.8,3,2.5,4.8-.7,7.3-44.6,34.3-101.7,37.4-152.4,7.5-38.5-22.6-64.4-55.2-73.7-99.5-8-37.8,1.7-72.2,23.2-103.8,1.3-2,2.2-2.2,4-.5q25.9,24.19,51.9,48.2c2.9,2.6,1,4-.6,6a173.61,173.61,0,0,0-29.5,52.8,81.68,81.68,0,0,0-2,51.6c8,24.8,26.3,38.3,51,44,7.3,1.7,15,2,22.7,3Z" transform="translate(0.03 0)"/><path class="a" d="M81,7c12,1,24.3.8,36.1,2.8,19.5,3.3,33.7,14.1,38,34.1,4.8,21.3.9,40.7-16.5,55.8a62.3,62.3,0,0,1-40.4,14.2c-9.3.3-18.6.3-28,.2-3.1,0-4.5.7-5.1,4-3.6,20-7.7,40-11.4,59.8-.6,3.3-1.8,4.3-5,4.2-8.5-.2-17-.2-25.6,0-3.8.2-4.7-.8-4-4.6l16-81.3c5.4-28,11-56.1,16.3-84.2.6-3.2,1.7-4.4,5-4.3,8.2.3,16.4.1,24.6.1Zm4.5,76.7v.4c5.4-.5,10.8-.9,16.1-1.6a25.11,25.11,0,0,0,6.5-2c10-4.3,14.4-13.3,13.2-26-.8-8.8-6.6-15-17-17-6-1.1-12.3-1-18.5-1.5-3.7-.3-5,1.4-5.6,4.8q-3.61,19.79-7.6,39.5c-.5,2.5-.3,3.7,2.6,3.5,3.4-.2,6.9,0,10.3,0Zm340.1-17,1-4.3c.9-4,.6-9.4,3.1-11.4s7.8-.6,12-.6c4.5,0,9.1.3,13.7-.1s4.6,1.4,3.9,5L444,131.2c-3,15.5-6.2,31-9.1,46.7-.6,3.1-1.8,4.3-5.1,4.2-6.9-.3-13.8-.3-20.6,0-4.1.2-6-.7-4.2-5a12,12,0,0,0,.4-2.8,4.2,4.2,0,0,0-1.4.3c-35.3,25-83.3,6-91.7-36.5A74,74,0,0,1,339,61.7c22-18,62-21.4,85,4a8.9,8.9,0,0,0,1.5,1ZM417,111.3c-.1-13.5-4.9-25.4-17.9-32S373,73.8,361,82a44.51,44.51,0,0,0-19.9,42.3c2.5,33.2,36.5,39.5,56,26.1a46.29,46.29,0,0,0,20-39.2ZM884,175a58.2,58.2,0,0,1-81.18-13.56q-1.34-1.87-2.52-3.84c-22-37.5-4.5-91.3,37.3-105.7C862,43.4,885,46,904.2,65.5a16.35,16.35,0,0,0,1.9,1.3,123.39,123.39,0,0,1,2.6-13.2,5.18,5.18,0,0,1,3.7-3.1c8-.3,16,0,24-.2,4-.2,4,1.6,3.4,4.4l-11,54.8-13.5,67.8c-.6,3.3-1.5,5.1-5.5,4.9-7-.4-14-.3-21.1,0-3.3,0-4.5-1-3.7-4.2l.7-4ZM863.4,75a86.55,86.55,0,0,0-9.2,1.4,44.71,44.71,0,0,0-33,44.6c.4,14.4,5.5,26.6,19.4,32.7,14.2,6.2,28,4.2,40-5.7s17.4-23.3,16.7-38.7c-1-20.6-14.5-33.9-33.9-34.2Zm-649-15.2c16-12.7,33-13.8,50.7-8.9,16.4,4.6,26,17,27.2,34,1,14.8-2.6,29-5.2,43.3-3,16.5-6.4,33-9.5,49.6-.6,3-1.5,4.5-5,4.4q-11.75-.37-23.5,0c-3.5,0-3.9-1-3.2-4.2,4.6-23.3,9-46.5,13.3-69.9a67,67,0,0,0,.6-16c-.6-9.6-7-15.6-16.5-16.5-15.1-1.4-26.7,4.2-32.4,18.4-4.6,11.6-7.2,24-10,36.3-3.4,15.8-6.2,31.7-9.1,47.7-.6,3-1.6,4.4-5,4.2-7.6-.3-15.1-.2-22.6,0-3.1,0-4-.7-3.4-3.9L178.7,87c4.8-24.6,9.7-49.1,14.2-73.7.8-4.3,2.3-5.6,6.5-5.4,7,.4,14.1.3,21.1,0,3.2,0,4.3.4,3.5,4-3.3,15.5-6.2,31-9.6,48Z" transform="translate(0.03 0)"/><path class="b" d="M1713.7,156.3l-18,18.8-40.6,42c-2.2,2.1-2.2,3.6-.7,6.1l37,59.2,3.3,5.6c-12,0-23.1.1-34.4-.2-1.3,0-3-2-4-3.5q-17.7-28.6-35.2-57.3l-3-4.7-4.9,24.8c-2.4,12.4-4.8,24.7-7,37.1-.5,3-1.8,4-4.8,3.9-8-.2-16-.3-24.1,0-3.4,0-4-1-3.4-4.1l18-92.4c4.8-24.6,9.6-49.1,14.2-73.7.6-3.3,2-4.3,5.1-4.2,7.7.2,15.4.3,23.1,0,3.8-.1,4.8.8,4,4.7-6.2,30.7-12.2,61.5-18.2,92.3a12.13,12.13,0,0,0,.1,2l4-3.8c15.6-16.3,31.3-32.6,46.8-49a10.89,10.89,0,0,1,9-3.7c10.9.2,21.7,0,33.7,0Zm-227.1,9.9a51.91,51.91,0,0,1,46.5-10.7c23.8,4.7,35,21.1,32,45.1-3,25.8-8.7,51.2-13.4,76.8-2,10.6-2.2,10.6-13.3,10.6-5.2,0-10.5-.3-15.7,0-4,.4-4.5-1-3.8-4.5q6.3-31.5,12.2-63a101.26,101.26,0,0,0,2.2-18.6c0-14.7-9.4-22.4-24-20.7-11.6,1.3-20.4,7-24.8,17.5a171.1,171.1,0,0,0-8.8,28.5c-4.3,19-8,38-11.7,57.1-.6,2.9-1.6,3.8-4.5,3.8-7.5-.2-15-.3-22.6,0-3.5,0-4-1.2-3.4-4.3l21-102.8c1.4-7,3-14.1,4.2-21.2.5-3,1.8-3.7,4.5-3.6,6.2.2,12.5.3,18.7,0,4-.2,5.4,1,3.8,5a11,11,0,0,0-.4,2.8l-.4,3.6Z" transform="translate(0.03 0)"/><path class="a" d="M513.7,67.2c.9-1.6,1.5-3.4,2.7-4.7a52,52,0,0,1,38.2-16c2.3-.2,3.2.3,2.7,3-1.7,8.3-3.3,16.6-4.8,25-.4,2.3-1.6,3-4,3.1a78.88,78.88,0,0,0-9.2,1c-14.5,1.9-24.9,9.4-28.8,23.6s-6.7,28.6-9.8,43q-3.42,16-6.2,32.2c-.7,3.9-2.2,5-6,4.8q-11.1-.45-22.2,0c-3.6.1-4.8-.6-4-4.5,5-24.2,9.5-48.4,14.2-72.6,3.2-16.6,6.5-33,9.5-49.6.7-4,2-5.5,6.3-5.2a164.87,164.87,0,0,0,18.6,0c3.6-.2,4.2,1.2,3.5,4.3-.9,3.6-1.6,7.2-2.3,10.9Z" transform="translate(0.03 0)"/><path class="b" d="M1333.7,288h-4.4l-10.6-.5c.5-3.4,1-6.8,1.7-10.2l31-159.2c.6-3.5,1.8-4.5,5.3-4.4,7,.3,14,.3,21.1,0,4-.2,5,1.1,4.2,5-3.7,18.4-7.2,36.9-10.8,55.3-7.1,36.6-14.3,73.1-21.3,109.7-.6,3.5-1.9,4.7-5.4,4.4s-7.2,0-10.8,0Zm82.7-131.7c3.8,0,7.6.2,11.3,0s4,1.1,3.4,4.2l-12.8,66c-3.7,19.2-7.6,38.4-11.2,57.7-.6,3.2-1.7,4-4.7,3.9-7.6-.2-15-.3-22.6,0-3.4,0-3.8-1.1-3.2-4l16.9-86.7c2.4-12.5,5-25,7.2-37.5.5-3,1.6-3.8,4.4-3.7,3.8.2,7.5,0,11.3,0ZM381.8,239.8l-9,44.2c-.7,3.3-5.4,5.6-8.1,3.6-.8-.5-.7-2.9-.4-4.3,2.6-13,5.4-25.9,8.1-38.8,1.4-6.6,3-13.1,4.1-19.7,1-5.7,5.3-2.7,8.2-3.3s3.6,1.3,4,4l8.1,53a6.75,6.75,0,0,0,1-1l29.3-52.8c1.5-2.8,8.9-4.8,11.6-3,.6.4.8,2,.6,2.9-4.1,20.2-8.4,40.3-12.6,60.5-1,4.6-4.6,2.7-7,2.7-3.8-.1-1.6-3.1-1.3-4.4,3-13.7,6.2-27.4,9.3-41l.5-4.4-2.8,4c-7.8,13.9-15.8,27.6-23.4,41.5-2,3.7-4.3,5.2-8,4.3-1.3-.3-3.1-1.7-3.3-2.9-2.5-15-4.8-30-7.1-45v-6l-.8-.2-1,4.3v1.8Zm-337.1,36,5.8-28.4c1.5-7.5,3.4-15,4.6-22.6.9-5.2,4.6-3.3,7.2-3.2,3.7.1,1.5,2.8,1.2,4.4l-12,57.5c-.4,1.6-2,4-3.4,4.1-2.7.4-5.9,1.4-7.6-2.9-6.3-15.6-13-31-19.5-46.5L18.8,234l-7.6,36.8c-1,4.7-2.1,9.3-2.9,14-.8,5.2-4.7,2.4-7.3,3-.3-1.4-1.2-3-1-4.3L12.2,226c.4-1.7,1.9-4,3.2-4.3,2.8-.5,6-1.2,7.7,3,6.7,16.8,13.8,33.4,20.8,50.2,0,.2.4.4,1,.9ZM714,246c2-1.5,3.6-3,5.5-4.3,6.3-4.6,16.8-4.1,19.9,3.3,1.3,3.1,2.4,1,3.4,0,4.3-4.2,9.3-6.7,15.4-6.2,7,.5,11.3,5.2,10.1,12.2-2,11.4-4.5,22.7-6.7,34.1-.8,4.5-4.2,2.3-6.6,2.5-.3,0-1.4-2.7-1.2-4,1.9-9.6,4.2-19.1,5.8-28.8.5-2.6.2-6.8-1.4-7.9-2-1.3-6-1-8.7-.2a14.8,14.8,0,0,0-10,11.2c-2.2,8.5-4,17.2-5.9,25.8-.8,3.8-3.8,5.5-7.4,4-.7-.3-1-2-1-3l6-28.3a28.78,28.78,0,0,0,.6-4.9c.2-4.4-1.8-6.5-6.3-5.8-7.9,1-12.5,6.2-14.5,13.5-2.2,8.3-3.8,16.9-5.8,25.3-.3,1.1-1,2.9-1.7,3a30.15,30.15,0,0,1-6.3,0,27.16,27.16,0,0,1,.2-4.6l8.1-38.8c1-4.1,4.3-6.1,7.7-4,1,.5.5,3.4.8,6Zm-80.5.5c1.8-2.5-.3-7,5-6.8,3.2.1,4.3.8,3.5,4.2l-7.3,34.5a143.3,143.3,0,0,1-3.5,14.3,22.41,22.41,0,0,1-33.5,10.9,9.43,9.43,0,0,1-3.6-4.5c-.6-2-1-5,0-6.7s6.7,1.3,7.8,3.7a6.47,6.47,0,0,0,2,2.6c5.6,4,16.3.8,18.7-5.7,1.2-3.3,2-6.8,2.9-10.2-3.8,1.6-7.2,3.7-10.9,4.6-8.5,2-16.8-4-18.8-13.7a29.49,29.49,0,0,1,11-30.5c8.7-7,17.9-5.7,26.7,3.3Zm-3,14c.1-8-2.6-12.9-7.4-14.5-5.1-1.8-10.7.2-14.6,5.5a26.79,26.79,0,0,0-5,18c.3,4.7,2,8.7,6.5,10.7,4.8,2.1,9,.4,12.6-2.8a24.62,24.62,0,0,0,7.9-17Zm-473.6,16c5-11.3,10.2-22.1,14.8-33.2,2-4.7,5.4-3.6,8.5-3.2,1,0,2.2,3,2.3,4.7.9,10.4,1.4,20.8,2.2,32.2l5-11c3.2-7,7-13.7,9.7-20.9,2-5.3,5.2-6.2,10.5-4.8l-11.4,23.5c-3.4,7-6.8,14.1-10.4,21a6.47,6.47,0,0,1-3.8,3c-4.2,1-6.3-.3-6.4-5.4-.2-10.2-1.3-20.5-2-31.5l-15.2,33.3c-1,2.3-2,3.6-4.8,3.8-4.4.3-5.7-1.3-6-5.3-1.2-12.6-2.7-25-3.8-37.6-.2-1.8-2.3-5.2,2.4-5.3,3.3-.2,5.2.2,5.4,4.5.6,10.6,2,21.3,3,32.2ZM574.3,283c-4.1,1.9-8,4.2-12.2,5.2-9.2,2.4-16.8-2-18.5-10.3s3.3-15.7,12.5-17.4c6-1,12.3-1,18.5-2,1.7-.3,4.4-2.3,4.5-3.6,0-2.5-.6-6-2.4-7.6-4.4-3.7-14.7-2.4-17.8,2.6-2.8,4.5-6.1,4.3-11.7,3.1,3-3.6,5-7.3,8-9.8,6.7-5.6,19-6,26.5-1.6,4.9,2.8,7,6.7,6,12.3-1.2,6.6-2.8,13.2-4,19.7-.5,2.6-.4,5.3-1,7.8-.4,2.1,2.7,5.3-1.6,6.4s-6.7-.6-6.8-4.7Zm-13.7-.6c8.5,0,17-8.7,16.5-16.9a2.11,2.11,0,0,0-1.6-1.2c-5.7.6-11.3,1.2-17,2.3-5.1,1-7.6,4.7-7,9.5.7,4.1,3.9,6.3,9.1,6.3Zm-88.8.5c-4.2,1.9-8,4.1-12.1,5.3-8.8,2.4-17.1-2-19-9.4-2-8.9,3-16.5,12.6-18.3,6-1,12-1.3,18-1.8,3-.2,5-.9,5.4-4.3s-.2-5.8-3.2-7.5c-5.6-3.2-15.3-1.5-18.4,4-2.3,4.3-5.4,2.6-8.3,2.5a4.55,4.55,0,0,1-.4-2.9c2.3-5,6-9,11.3-10.1a41,41,0,0,1,15.4-.8c9.8,1.6,13.2,7.6,11.3,17.4L480,279.6c-.2.8.3,1.8-.1,2.4-1,1.8,3.3,5-1.3,5.8-3.8.6-7.4.4-6.8-5Zm-14.2-.5c10-.1,15.1-7.6,16.4-16.4.1-.5-1.1-1.7-1.7-1.7-5.6.7-11.3,1.2-17,2.3a8,8,0,0,0-6.75,9.08c0,.1,0,.21.05.32.6,4,4,6.4,9,6.4Zm-350.2-9.5c-4,9-10.6,14.9-20.7,15.9-11,1-19.5-6.2-20.4-17.1-1.7-19,11-34,27.6-32.9,11.5.9,20.2,14,16.1,24.9-.4,1-2.8,1.9-4.2,2-9,.1-18,.3-27,0-4.4-.2-5,1.7-4.5,5.3.9,4.9,2.7,9.4,8,10.8a12.59,12.59,0,0,0,14.1-5.5c2.9-4.4,5.8-5.7,11-3.4Zm-18-13.4h6.8c7,0,8.4-2.4,5.2-8.6-2.3-4.5-6.2-6.3-11-5.7-6.3.7-10.2,4.6-13,10-1.4,2.9-1.8,4.8,2.6,4.4,3-.3,6.2,0,9.3,0Zm598.7,13.4c-4,9-10.5,14.8-20.3,15.9-11.5,1.2-20.2-6.3-20.8-17.9-1-19,11-33.2,27.4-32,11.7.7,20.3,13.7,16.3,24.6-.4,1.1-2.7,2-4.2,2.1-8.8.2-17.7.4-26.5,0-4.8-.2-5.6,2-4.9,5.8.9,4.8,2.8,9,7.9,10.3a12.51,12.51,0,0,0,14.1-5.5C680.1,271.7,683.1,270.7,688.1,272.9Zm-17.9-13.4c2.1,0,4.3.2,6.4,0s4.5-.7,6.7-1c-.6-2.9-.6-6-1.9-8.5-2-4-6-5.3-10.4-4.8-6.9,1-10.9,5.4-13.5,11.5-.9,2.1-.5,3,2,2.9,3.5-.1,7.1,0,10.7,0ZM816,272.6c-2.2,9.4-12.6,16.8-22.9,16.3-9.9-.5-16-6.6-17.6-17.1-2-14.4,7.1-29.7,20.1-32.5,15.2-3.2,26.4,6.6,23.4,24.4-.1.8-2.3,1.9-3.5,2H788c-3.4-.2-4.7.7-4.5,4.3.5,5.6,3.1,10.1,7.5,11.6,4.7,1.7,11.8-.5,15-5.9,2.7-4.6,6-4.5,10-3Zm-17.5-13c3.6,0,7.2.1,10.8-.2a3.71,3.71,0,0,0,2.6-2.3,11,11,0,0,0-10-11.89,10.88,10.88,0,0,0-3.17.19,16,16,0,0,0-11.8,9.3c-2.3,4.5-2.1,4.8,2.8,4.8h8.8Zm-492.5.9c5.6-5.4,11.5-10.4,16.7-16,4.1-4.6,8.8-5.4,15.3-4.3-5.9,5.2-11.1,10-16.6,14.5-2.6,2.1-3.1,3.9-1.7,7,3.7,8.4,7,16.9,10.5,25.4-7.8,1.9-8.3,1.6-11-5.2l-7-18c-8.5,4-12,10.7-12.5,19.2-.3,4.4-2.7,5.2-6.5,4.9-2.5-.2-2.5-1-2-3,4.2-20.2,8.5-40.3,12.6-60.5.9-4.6,4-2.8,6.5-2.7.4,0,1.5,3,1.2,4.4-2,10.8-4.3,21.5-6.5,32.2l-.6,3.4Zm-51-1c-.1,13.3-6.6,23.6-17.3,27.7-15.3,5.9-28.4-3.3-28-19.6.4-13.8,8.3-25.2,19.6-28,14.7-3.8,25.8,4.8,25.7,20Zm-6.7.4-1.3-.5c.2-6.5-2.5-11.5-7-13.5-5.1-2.1-11-.5-15.5,4.3-4.7,5-6.3,11.3-6.7,18s2.6,11.9,7.4,13.6a13,13,0,0,0,15.2-5c3.3-5.2,5.3-11.2,7.9-16.9Zm258.3-12.5c2.6-2,4.2-3.8,6.2-4.5,4.3-1.7,8.8-3.7,13.3-3.9a9.82,9.82,0,0,1,10.2,11.3c-1.7,11.9-4.2,23.7-7,35.5-.2,1.1-4.2,1.4-6.5,2-.3-1.3-1-2.7-.8-3.9,1.8-9.5,4-18.9,5.8-28.3,1.7-8.5-2.4-12.1-10.8-9.3-6,2-9.8,6.5-11.4,12.5-2.3,8.3-4,16.8-6,25.2a5.32,5.32,0,0,1-7.6,3.6c-.5-.3-.8-1.8-.6-2.7,2.8-14,6-27.8,8.5-41.8,1-4.7,4-3,6.7-3.3l.3,5a25.51,25.51,0,0,1-.4,2.6ZM842,245.8a29.34,29.34,0,0,1,3.9-2.3c4.1-1.6,8.3-4.1,12.6-4.5,7.9-.7,13,4.6,11.9,12.5-1.5,10.6-4.2,21.1-6,31.8-.6,4.1-2.5,4.8-6.2,4.6-2.6-.1-2.9-1-2.4-3.3,2.1-9.4,4.3-18.8,5.9-28.3.5-3,.5-8-1-8.9a14.91,14.91,0,0,0-10.6-.5c-6.7,2.1-9.6,8-11.2,14.4-2,7.6-3.4,15.3-5,23-.7,3-5.6,5.2-7.9,3.3-.6-.5-.4-2.3-.2-3.4,2.7-13.3,5.7-26.5,8-39.9.8-4.7,3.5-5,6.7-4.2.9.2,1,3.3,1.5,5.7Zm577.4-103.4h-12.2c-2.2.1-3-.4-2.5-2.7,1.7-7.8,3-15.7,4.8-23.5.2-1,2.1-2.3,3.3-2.3,8.1-.3,16.3,0,24.4-.2,2.7,0,2.9,1,2.4,3.2-1.6,7.5-2.8,15.1-4.5,22.6a4.81,4.81,0,0,1-3.5,2.8c-4,.4-8.1.1-12.2.1ZM895.1,281.6c-.8,6.4-2.3,7.7-8,7-6.3-.7-9.3-3.8-8.3-9,1.7-9.5,3.7-19,5.7-28.4.6-2.9,1.5-5.6-3.3-5.3-.5,0-1.7-1.4-1.6-2,.4-1.8-.1-4.7,3.3-4s4.8-1.5,4.8-4.4c.1-6.7,4.2-10,10.6-12.4-1,5.7-2,11-3.2,16.5a17.9,17.9,0,0,1,4,.3,17.7,17.7,0,0,1,3.4,1.9c-1.1,1.4-2.4,4.1-3.5,4-4.8-.4-6,1.8-6.7,6-1,7.3-3,14.4-4.4,21.6-1.5,8-1,8.5,7.2,8.2Zm-758-55.5-1.6,8.2c-1,3.6-1.5,6.5,4,5.6.7-.1,2.4,1.5,2.3,1.7-.7,1.6-2,4.3-2.7,4.2-6.2-1-6.8,3-7.6,7.4-1.3,6.8-2.8,13.4-4.2,20.2-1.6,8-1,8.6,6.8,8.1,0,6.4-.8,7.3-6.5,7.2-6.2-.2-10.2-3.2-9.4-8.1,1.5-9.9,3.7-19.6,5.7-29.4.6-2.9,1.4-5.7-3.3-5.3-.5,0-1.7-1.6-1.6-2,.8-1.5,2-4,2.9-3.9,4.1.4,5.2-1.8,5.3-5.1.1-6,3.6-9,8.7-11Zm138.8,21.6c1.1-1.3,2-3,3.5-3.8,3.1-1.9,6.3-4,9.8-4.9,1.5-.4,3.7,1.7,5.6,2.7-1.6,2.3-.7,6.8-6.2,5.2-4.7-1.4-10.4,2.5-13,9.1s-4,13.7-5.9,20.7c-.7,2.8-1,5.8-2,8.5a4.8,4.8,0,0,1-3.1,2.6c-3.7.7-5.1-.2-4-4.7,3-13.2,5.4-26.5,8.4-39.7a5.29,5.29,0,0,1,3.4-3.4c4.7-.7,4.8-.4,3.5,7.7Z" transform="translate(0.03 0)"/><path class="c" d="M884,175l1.8-1-.7,4Z" transform="translate(0.03 0)"/><path class="d" d="M381.8,239.8v-2l1.7-.9v2.9Z" transform="translate(0.03 0)"/><path class="e" d="M306,260.5l-1.6,1.3.6-3.4Z" transform="translate(0.03 0)"/><path class="f" d="M137.1,226.1l-1.3-2.3,2-.8Z" transform="translate(0.03 0)"/><path class="g" d="M1486.6,166.2l-1.7,1.4.5-3.6Z" transform="translate(0.03 0)"/><path class="h" d="M383.6,237l-1.7,1,.9-4.3h.8Z" transform="translate(0.03 0)"/></svg>