<svg xmlns="http://www.w3.org/2000/svg" viewBox="0 0 64 64"><g data-name="Group 27"><path fill="#fff" stroke="#fff" stroke-miterlimit="10" stroke-width=".8" d="M47.4 47.5l-8-4a2.4 2.4 0 0 1-1.3-2v-2.9a7.5 7.5 0 0 0 .5-.8 22.9 22.9 0 0 0 2.6-4.9 3.3 3.3 0 0 0 1.9-3v-3.3a3.5 3.5 0 0 0-.8-2.2V20a7.3 7.3 0 0 0-1.8-5.4c-1.6-2-4.5-3-8.2-3s-6.6 1-8.3 3a7.7 7.7 0 0 0-1.8 5.4v4.5a3.4 3.4 0 0 0-.8 2.1V30a3.4 3.4 0 0 0 1.3 2.6 15.9 15.9 0 0 0 3 6v2.7a2 2 0 0 1-1.3 2l-7.4 4a7.9 7.9 0 0 0-4 6.9l1.6 1.8 9.2 4.3 10 1.2 8.6-1.6 7.4-3.7 1.8-1.9a7.5 7.5 0 0 0-4.2-6.7z" data-name="Path 326"/></g><circle cx="29.5" cy="29.5" r="29.5" fill="none" stroke="#fff" stroke-miterlimit="10" stroke-width="5" data-name="Ellipse 11" transform="translate(2.5 2.5)"/></svg>