<svg xmlns="http://www.w3.org/2000/svg" viewBox="0 0 31 31"><defs><style>.a{fill:#8fd13f;}</style></defs><path class="a" d="M12.324,0H1.816A1.818,1.818,0,0,0,0,1.816V12.324A1.818,1.818,0,0,0,1.816,14.14H12.324a1.818,1.818,0,0,0,1.816-1.816V1.816A1.818,1.818,0,0,0,12.324,0Z"/><path class="a" d="M31.816,14.14H42.324a1.818,1.818,0,0,0,1.816-1.816V1.816A1.818,1.818,0,0,0,42.324,0H31.816A1.818,1.818,0,0,0,30,1.816V12.324A1.818,1.818,0,0,0,31.816,14.14Z" transform="translate(-13.684)"/><path class="a" d="M12.324,30H1.816A1.818,1.818,0,0,0,0,31.816V42.324A1.818,1.818,0,0,0,1.816,44.14H12.324a1.818,1.818,0,0,0,1.816-1.816V31.816A1.818,1.818,0,0,0,12.324,30Z" transform="translate(0 -13.684)"/><path class="a" d="M43.14,35.526H37.7V30.088a1.088,1.088,0,0,0-2.175,0v5.439H30.088a1.088,1.088,0,0,0,0,2.175h5.439V43.14a1.088,1.088,0,0,0,2.175,0V37.7H43.14a1.088,1.088,0,0,0,0-2.175Z" transform="translate(-13.228 -13.228)"/></svg>